<svg width="623" height="622" viewBox="0 0 623 622" fill="none" xmlns="http://www.w3.org/2000/svg">
<path d="M149.071 83.9575H15.6934V535.785H149.071V83.9575Z" fill="#1A1C3F"/>
<path d="M149.071 533.856H15.6933L17.6308 535.791V90.7373C17.6308 88.8091 17.9112 86.6321 17.6308 84.7163C17.6121 84.4637 17.6121 84.2101 17.6308 83.9575L15.6933 85.8919H149.071L147.134 83.9699V517.38C147.134 523.257 146.978 529.154 147.134 535.032C147.134 535.281 147.134 535.536 147.134 535.791C147.134 538.279 151.009 538.279 151.009 535.791V102.369C151.009 96.4908 151.165 90.5942 151.009 84.7163C151.009 84.4675 151.009 84.2125 151.009 83.9575C151.001 83.4475 150.794 82.9608 150.432 82.6008C150.07 82.2407 149.582 82.0357 149.071 82.0293H15.6933C15.1825 82.0357 14.6943 82.2407 14.3325 82.6008C13.9707 82.9608 13.7638 83.4475 13.7557 83.9575V517.38C13.7557 523.257 13.6 529.154 13.7557 535.032C13.7557 535.281 13.7557 535.536 13.7557 535.791C13.7638 536.301 13.9707 536.787 14.3325 537.147C14.6943 537.508 15.1825 537.712 15.6933 537.719H149.071C151.563 537.719 151.563 533.856 149.071 533.856Z" fill="#1A1C3F"/>
<path d="M149.071 83.9575H15.6934V148.888H149.071V83.9575Z" fill="#206A5D"/>
<path d="M15.6933 150.823H149.071C149.583 150.816 150.072 150.61 150.434 150.249C150.796 149.887 151.002 149.399 151.009 148.888V83.97C151.001 83.46 150.794 82.9733 150.432 82.6132C150.07 82.2532 149.582 82.0482 149.071 82.0417H15.6933C15.1831 82.0482 14.6956 82.2534 14.3348 82.6136C13.974 82.9739 13.7684 83.4606 13.762 83.97V148.888C13.762 151.376 17.6308 151.376 17.6308 148.888V83.97L15.6933 85.9044H149.071L147.134 83.97V148.888L149.071 146.96H15.6933C13.2013 146.96 13.2013 150.823 15.6933 150.823Z" fill="#22906C"/>
<path d="M15.6935 150.823H149.072C149.583 150.816 150.072 150.61 150.434 150.249C150.796 149.887 151.003 149.399 151.009 148.888V83.97C151.001 83.46 150.794 82.9733 150.432 82.6132C150.07 82.2532 149.582 82.0482 149.072 82.0417H15.6935C13.2015 82.0417 13.2015 85.9044 15.6935 85.9044H149.072L147.134 83.97V148.888L149.072 146.96H15.6935C13.2015 146.96 13.2015 150.823 15.6935 150.823Z" fill="#1A1C3F"/>
<path d="M261.348 538.042V148.683L149.071 83.9575L36.7881 148.683V538.042" fill="white"/>
<path d="M36.7881 148.683V538.043H244.727V157.279L133.297 93.0513L36.7881 148.683Z" fill="#D1F6C1"/>
<path d="M263.286 538.03V156.875C263.286 154.331 263.454 151.718 263.286 149.18C263.118 146.643 259.785 145.548 257.766 144.385L204.039 113.409L152.946 83.97L150.049 82.2968C149.752 82.1254 149.415 82.0352 149.071 82.0352C148.728 82.0352 148.391 82.1254 148.093 82.2968L109.704 104.428L49.4101 139.173L40.1523 144.515C38.8128 145.281 37.1619 145.959 35.9595 146.929C34.4269 148.173 34.8568 150.188 34.8568 152.004V510.569C34.8568 519.333 34.7322 528.109 34.8568 536.873C34.8568 537.265 34.8568 537.651 34.8568 538.042C34.8568 540.53 38.7256 540.53 38.7256 538.042V154.511C38.7256 152.881 39.0122 150.953 38.7256 149.342C38.7069 149.123 38.7069 148.902 38.7256 148.683L37.7662 150.35L75.6446 128.518L136.076 93.6856L150.043 85.637H148.087L185.965 107.469L246.396 142.301L260.364 150.35L259.417 148.658V522.219C259.417 527.245 259.143 532.357 259.417 537.377C259.417 537.601 259.417 537.819 259.417 538.042C259.417 540.53 263.286 540.53 263.286 538.042V538.03Z" fill="#1A1C3F"/>
<path d="M114.632 82.2906L80.7407 101.815L27.0319 132.766L14.5968 139.95C12.4412 141.194 14.3912 144.534 16.553 143.284L50.4193 123.778L104.122 92.8211L116.582 85.6556C118.737 84.4116 116.794 81.0715 114.632 82.3155V82.2906Z" fill="#1A1C3F"/>
<path d="M81.1145 82.2906L22.9512 115.816L14.5968 120.631C12.4412 121.875 14.3912 125.215 16.553 123.971L74.7163 90.445L83.0707 85.6307C85.2263 84.3867 83.2763 81.0466 81.1145 82.2906Z" fill="#1A1C3F"/>
<path d="M47.6283 82.2906L14.7152 101.262C12.5596 102.506 14.5096 105.846 16.6714 104.595L49.5783 85.6307C51.7338 84.3867 49.7901 81.0466 47.6283 82.2906Z" fill="#1A1C3F"/>
<path d="M263.024 283.178C263.953 275.938 265.61 268.654 269.254 262.316C270.812 259.592 273.198 259.411 275.092 256.905C275.921 255.816 277.69 252.128 278.761 251.307C280.095 250.249 280.3 249.895 281.908 249.341C283.39 248.825 284.942 248.34 286.499 248.532C288.057 248.725 289.614 249.776 289.857 251.35C290.175 253.347 288.356 254.952 287.097 256.538C284.343 260.008 283.92 264.717 283.602 269.127C283.459 271.167 283.633 273.748 285.533 274.495C287.851 275.403 290.592 272.585 292.735 273.842C293.378 274.27 293.851 274.907 294.075 275.645C294.598 277.096 294.616 278.681 294.125 280.143C293.221 282.798 290.798 284.602 288.518 286.238C283.359 289.92 277.821 293.746 271.491 294.088" fill="white"/>
<path d="M285.284 276.323C283.135 275.079 280.394 277.885 278.082 276.983C276.176 276.236 276.002 273.655 276.145 271.615C276.463 267.199 276.892 262.49 279.64 259.026C280.886 257.433 282.724 255.835 282.406 253.832C282.157 252.289 280.612 251.22 279.06 251.021L278.749 251.276C277.677 252.128 275.908 255.816 275.079 256.874C273.21 259.362 270.799 259.561 269.242 262.285C265.61 268.623 263.953 275.907 263.012 283.147L271.46 294.026C271.964 294.026 272.463 293.945 272.961 293.876C275.779 292.34 278.485 290.609 281.06 288.695C283.347 287.059 285.764 285.255 286.667 282.593C287.159 281.131 287.141 279.547 286.617 278.096C286.388 277.371 285.918 276.746 285.284 276.323Z" fill="#FFDBC0"/>
<path d="M264.046 283.464C265.548 278.569 266.32 273.512 268.22 268.729C269.267 266.098 270.432 263.268 272.687 261.458C274.151 260.282 275.64 259.455 276.774 257.894C279.11 254.678 280.101 251.108 284.68 250.517C287.652 250.137 288.144 252.146 286.549 254.106C285.97 254.827 285.34 255.505 284.823 256.283C283.72 258.011 282.934 259.921 282.499 261.924C281.69 265.364 280.724 270.116 282.02 273.524C283.372 277.095 286.655 276.97 289.751 276.118C290.592 275.888 291.047 275.546 291.732 276.075C292.891 276.958 291.826 279.726 291.265 280.584C289.932 282.649 287.527 284.03 285.552 285.392C281.278 288.34 276.768 291.202 271.454 291.575C268.258 291.799 268.289 296.856 271.454 296.551C276.071 296.02 280.5 294.418 284.387 291.873C288.057 289.597 292.548 286.953 295.028 283.327C297.04 280.391 297.607 275.776 295.084 272.915C294.59 272.346 293.967 271.902 293.267 271.62C292.568 271.338 291.811 271.225 291.059 271.291C288.997 271.422 286.3 273.692 285.565 270.707C285.122 268.909 285.752 266.191 286.044 264.393C286.387 261.781 287.41 259.304 289.01 257.209C291.003 254.721 293.196 251.562 290.567 248.582C287.938 245.603 282.954 246.362 279.771 248.109C276.73 249.783 275.646 252.538 273.802 255.269C272.482 257.228 270.226 258.055 268.694 259.797C267.161 261.538 266.171 264.033 265.286 266.253C263.205 271.466 261.754 277.549 261.947 283.19C261.955 283.441 262.051 283.681 262.22 283.868C262.388 284.055 262.617 284.176 262.866 284.21C263.115 284.245 263.369 284.19 263.581 284.055C263.794 283.921 263.952 283.716 264.027 283.476L264.046 283.464Z" fill="#1A1C3F"/>
<path d="M216.374 324.479C224.947 317.798 232.715 310.31 240.173 302.584C243.911 298.715 247.574 294.784 251.256 290.872C254.371 287.526 257.617 283.781 262.134 281.99C267.741 279.757 272.039 284.876 274.17 289.025C275.406 291.387 276.264 293.929 276.712 296.557C277.26 299.91 275.634 302.846 273.964 305.788C271.896 309.439 269.796 313.109 267.653 316.722C263.258 324.134 258.29 331.193 252.795 337.833C249.337 342.025 245.562 346.143 240.659 348.842C235.756 351.542 229.513 352.63 224.293 350.503C220.15 348.818 217.197 345.397 214.406 342.1" fill="#206A5D"/>
<path d="M216.885 325.349C226.152 318.574 234.818 311.015 242.789 302.758C246.689 298.778 250.521 294.735 254.383 290.723C257.336 287.656 262.588 281.847 267.317 284.416C271.422 286.649 274.413 293.093 274.606 297.546C274.718 300.146 273.291 302.491 272.07 304.68C270.575 307.351 269.055 310.009 267.51 312.654C261.791 322.494 255.399 332.235 247.518 340.508C243.244 344.986 237.98 348.842 231.6 349.272C228.499 349.528 225.401 348.737 222.803 347.026C220.168 345.266 218.287 342.672 215.857 340.644C214.144 339.226 211.384 340.999 212.63 343.132C215.539 348.108 220.729 352.5 226.517 353.588C232.304 354.677 238.254 353.041 243.132 349.968C248.49 346.591 252.602 341.671 256.483 336.751C260.782 331.319 264.755 325.639 268.382 319.739C270.17 316.816 271.883 313.849 273.59 310.875C275.297 307.902 277.198 305.085 278.3 301.912C280.132 296.607 277.895 290.399 274.942 285.89C272.382 281.965 268.27 278.426 263.255 279.309C257.586 280.31 253.393 285.336 249.723 289.342C238.827 301.234 227.918 313.264 215.658 323.763C214.792 324.497 215.944 326.021 216.904 325.349H216.885Z" fill="#1A1C3F"/>
<path d="M217.695 176.312H80.448V352.537H217.695V176.312Z" fill="#FFC090"/>
<path d="M84.7778 353.377C86.6468 349.551 89.8179 346.535 93.2942 344.047C96.7706 341.559 100.577 339.643 104.222 337.441C107.866 335.239 111.455 332.726 115.598 331.681C116.044 331.535 116.522 331.511 116.981 331.613C117.366 331.76 117.71 331.996 117.984 332.303C120.592 334.84 122.618 337.91 123.924 341.303C125.229 344.696 125.783 348.331 125.547 351.959" fill="#206A5D"/>
<path d="M85.8059 353.98C88.4723 349.44 92.6589 346.361 97.157 343.767C101.381 341.323 105.605 338.859 109.854 336.459C111.393 335.588 114.601 333.305 116.308 333.79C117.903 334.244 119.454 337.441 120.258 338.891C122.719 343.319 122.681 347.717 123.454 352.537C123.809 354.72 127.123 354.472 127.64 352.537C129.023 347.368 126.849 341.018 124.195 336.589C122.881 334.387 121.13 331.899 119.049 330.369C116.968 328.839 114.757 329.567 112.514 330.469C106.658 332.807 101.001 336.745 95.7365 340.191C90.7525 343.444 86.2669 347.275 83.7438 352.774C83.1208 354.142 84.9898 355.33 85.8059 353.98Z" fill="#1A1C3F"/>
<path d="M180.807 272.479C174.347 267.503 166.241 264.972 158.124 264.082C150.006 263.193 141.801 263.821 133.665 264.555C131.279 264.767 128.73 265.053 126.886 266.589C125.042 268.125 124.276 270.645 123.871 273.033C123.291 276.434 123.193 279.899 123.578 283.327C123.576 283.697 123.648 284.063 123.79 284.403C123.933 284.744 124.142 285.053 124.407 285.311C124.871 285.594 125.408 285.734 125.952 285.716L133.366 286.207L126.101 290.611C125.666 290.821 125.295 291.146 125.03 291.55C124.781 292.192 124.781 292.904 125.03 293.547C126.276 298.181 127.603 302.914 130.356 306.851C131.36 308.288 132.624 309.65 134.294 310.185C135.963 310.72 137.839 310.347 139.49 309.7C149.184 305.924 153.576 294.548 162.204 288.745C163.07 288.16 164.073 287.457 164.073 286.419" fill="#232323"/>
<path d="M181.586 271.696C168.154 260.288 149.352 260.711 132.768 262.366C129.578 262.683 126.469 263.373 124.32 265.936C122.17 268.499 121.579 272.05 121.242 275.322C120.924 278.401 120.195 283.794 122.332 286.387C124.581 289.13 130.325 287.631 133.366 287.812L132.556 284.845C130.45 286.052 128.338 287.24 126.239 288.465C125.148 289.087 123.927 289.665 123.348 290.853C122.021 293.578 124.27 298.398 125.179 301.017C127.347 307.268 131.353 314.738 139.184 312.53C145.414 310.776 149.962 305.632 153.956 300.861C155.901 298.407 157.981 296.063 160.186 293.839C162.373 291.749 165.924 290.287 166.665 287.146C167.469 283.775 162.248 282.344 161.475 285.716C161.289 286.537 159.575 287.358 158.952 287.855C158.068 288.558 157.227 289.298 156.417 290.082C154.805 291.694 153.281 293.39 151.85 295.164C148.972 298.628 146.193 302.416 142.505 305.116C140.543 306.553 137.465 308.506 134.923 307.846C132.381 307.187 130.681 303.53 129.684 301.34C129.064 299.93 128.521 298.487 128.058 297.017C127.746 296.072 126.693 294.044 126.812 293.068C127.129 290.953 132.269 288.782 134.101 287.607C134.394 287.424 134.621 287.153 134.748 286.832C134.874 286.511 134.894 286.158 134.804 285.825C134.714 285.492 134.518 285.197 134.247 284.983C133.976 284.77 133.642 284.649 133.297 284.64C131.402 284.492 129.516 284.245 127.647 283.899C125.622 283.545 125.74 283.103 125.634 281.063C125.472 277.903 125.597 274.476 126.55 271.435C127.584 268.138 129.97 267.292 133.148 266.9C136.543 266.483 139.969 266.216 143.384 265.998C156.074 265.196 169.288 266.303 180.178 273.462C181.212 274.14 182.477 272.548 181.517 271.727L181.586 271.696Z" fill="#1A1C3F"/>
<path d="M217.695 350.603H80.448L82.3856 352.537V176.312L80.448 178.24H217.695L215.757 176.312V352.537C215.757 355.025 219.632 355.025 219.632 352.537V176.312C219.624 175.802 219.418 175.314 219.056 174.953C218.694 174.592 218.206 174.386 217.695 174.378H80.448C79.9362 174.384 79.4471 174.59 79.0851 174.951C78.7232 175.313 78.517 175.801 78.5105 176.312V352.537C78.5186 353.047 78.7255 353.534 79.0873 353.894C79.4491 354.254 79.9372 354.459 80.448 354.465H217.695C220.187 354.465 220.187 350.603 217.695 350.603Z" fill="#1A1C3F"/>
<path d="M109.648 350.603H80.448L82.3856 352.537V176.312L80.448 178.24H109.648L107.711 176.312V352.537C107.711 355.025 111.586 355.025 111.586 352.537V176.312C111.578 175.802 111.371 175.314 111.009 174.953C110.648 174.592 110.159 174.386 109.648 174.378H80.448C79.9362 174.384 79.4471 174.59 79.0851 174.951C78.7232 175.313 78.517 175.801 78.5105 176.312V352.537C78.5186 353.047 78.7255 353.534 79.0873 353.894C79.4491 354.254 79.9372 354.459 80.448 354.465H109.648C112.14 354.465 112.14 350.603 109.648 350.603Z" fill="#1A1C3F"/>
<path d="M80.4481 207.244H109.648C112.14 207.244 112.14 203.382 109.648 203.382H80.4481C77.9561 203.382 77.9561 207.244 80.4481 207.244Z" fill="#1A1C3F"/>
<path d="M80.4481 239.097H109.648C112.14 239.097 112.14 235.228 109.648 235.228H80.4481C77.9561 235.228 77.9561 239.097 80.4481 239.097Z" fill="#1A1C3F"/>
<path d="M80.4481 270.943H109.648C112.14 270.943 112.14 267.081 109.648 267.081H80.4481C77.9561 267.081 77.9561 270.943 80.4481 270.943Z" fill="#1A1C3F"/>
<path d="M80.4481 302.796H109.648C112.14 302.796 112.14 298.927 109.648 298.927H80.4481C77.9561 298.927 77.9561 302.796 80.4481 302.796Z" fill="#1A1C3F"/>
<path d="M217.689 176.312H208.269V352.537H217.689V176.312Z" fill="#22906C"/>
<path d="M217.695 350.603H208.269L210.206 352.537V176.312L208.269 178.24H217.695L215.757 176.312V352.537C215.757 355.025 219.632 355.025 219.632 352.537V176.312C219.624 175.802 219.418 175.314 219.056 174.953C218.694 174.592 218.206 174.386 217.695 174.378H208.269C207.758 174.384 207.269 174.59 206.908 174.952C206.547 175.313 206.342 175.802 206.338 176.312V352.537C206.344 353.047 206.55 353.533 206.91 353.893C207.271 354.254 207.759 354.459 208.269 354.465H217.695C220.187 354.465 220.187 350.603 217.695 350.603Z" fill="#22906C"/>
<path d="M217.695 350.603H208.269L210.206 352.537V176.312L208.269 178.24H217.695L215.757 176.312V352.537C215.757 355.025 219.632 355.025 219.632 352.537V176.312C219.624 175.802 219.418 175.314 219.056 174.953C218.694 174.592 218.206 174.386 217.695 174.378H208.269C207.758 174.384 207.269 174.59 206.908 174.952C206.547 175.313 206.342 175.802 206.338 176.312V352.537C206.344 353.047 206.55 353.533 206.91 353.893C207.271 354.254 207.759 354.459 208.269 354.465H217.695C220.187 354.465 220.187 350.603 217.695 350.603Z" fill="#1A1C3F"/>
<path d="M216.76 222.415C222.884 228.311 219.402 240.098 225.831 245.653C226.604 246.318 227.563 246.984 227.663 247.998C227.653 248.63 227.49 249.251 227.189 249.808C225.395 254.23 226.772 259.218 227.762 263.89C228.753 268.561 229.121 274.003 225.893 277.53C223.302 280.36 219.196 281.057 215.589 282.382C210.111 284.411 205.43 288.144 202.238 293.03C199.821 296.762 197.908 301.421 193.709 302.845C190.706 303.866 187.361 302.845 184.676 301.154C181.991 299.462 179.692 297.21 177.106 295.425C174.328 293.522 170.939 291.911 169.761 288.757C168.422 285.168 170.608 281.231 173.181 278.388C175.754 275.546 178.907 272.958 180.072 269.307C181.15 265.917 180.296 262.235 179.181 258.864C177.443 253.608 175.05 248.495 174.415 242.997C173.869 238.227 174.683 233.4 176.763 229.072C178.842 224.743 182.104 221.089 186.171 218.529C190.239 215.969 194.948 214.607 199.756 214.6C204.565 214.593 209.277 215.941 213.352 218.49" fill="white"/>
<path d="M196.638 292.34C199.832 287.455 204.512 283.723 209.988 281.691C213.596 280.366 217.701 279.676 220.293 276.84C223.514 273.319 223.146 267.87 222.162 263.199C221.178 258.528 219.795 253.546 221.589 249.117C221.89 248.563 222.052 247.944 222.062 247.313C221.963 246.293 221.003 245.634 220.231 244.962C213.801 239.408 217.284 227.621 211.16 221.73L207.758 217.806C205.435 216.36 202.888 215.309 200.22 214.696C195.268 214.591 190.392 215.917 186.177 218.515C182.159 221.127 178.939 224.793 176.869 229.112C174.798 233.43 173.958 238.234 174.44 242.997C175.063 248.495 177.468 253.608 179.206 258.864C180.321 262.235 181.175 265.917 180.097 269.307C178.932 272.958 175.78 275.527 173.207 278.388C170.634 281.25 168.447 285.168 169.786 288.757C170.964 291.911 174.353 293.522 177.131 295.425C179.742 297.21 182.01 299.48 184.701 301.154C185.492 301.642 186.326 302.059 187.193 302.398C187.514 302.336 187.83 302.253 188.14 302.149C192.308 300.737 194.22 296.072 196.638 292.34Z" fill="#FFE2CC"/>
<path d="M216.056 223.118C220.498 227.951 219.283 235.216 221.29 241.056C222.205 243.731 223.782 245.074 225.401 247.183C226.678 248.837 225.096 251.027 224.878 252.949C224.703 254.91 224.785 256.886 225.121 258.827C225.688 262.621 226.94 266.365 226.784 270.24C226.585 275.111 223.906 277.754 219.383 279.241C212.661 281.455 206.83 283.999 202.244 289.665C200.375 291.986 199.08 294.641 197.397 297.092C194.644 301.104 190.893 302.23 186.507 299.916C183.187 298.168 180.527 295.319 177.405 293.248C173.885 290.903 169.979 288.745 171.904 283.812C173.325 280.161 176.652 277.661 179.031 274.669C181.295 272.021 182.474 268.618 182.333 265.14C181.91 256.948 176.552 249.845 176.103 241.616C175.888 237.375 176.788 233.152 178.714 229.365C180.64 225.579 183.524 222.361 187.081 220.033C194.775 215.175 204.786 215.374 212.505 219.989C214.43 221.14 216.181 218.123 214.262 216.991C199.721 208.283 180.67 214.547 174.446 230.333C171.02 239.041 173.132 247.226 176.209 255.673C177.972 260.519 180.315 266.123 177.356 270.968C174.982 274.862 170.851 277.294 168.746 281.424C167.082 284.696 166.908 288.465 169.101 291.531C171.362 294.704 175.281 296.352 178.259 298.734C184.078 303.381 191.878 308.624 198.506 302.099C201.422 299.232 202.867 295.257 205.359 292.097C208.277 288.446 212.131 285.652 216.511 284.011C219.938 282.718 223.738 281.94 226.479 279.359C229.133 276.871 230.124 273.326 230.111 269.774C230.111 264.431 227.663 259.362 227.862 254.019C227.943 251.842 229.582 249.366 228.965 247.251C228.479 245.597 226.822 244.813 225.763 243.563C220.554 237.343 223.489 227.696 217.446 221.712C216.536 220.81 215.184 222.172 216.044 223.111L216.056 223.118Z" fill="#1A1C3F"/>
<path d="M216.387 240.347C216.164 240.352 215.945 240.409 215.748 240.513C215.551 240.617 215.381 240.765 215.251 240.946C215.121 241.127 215.035 241.336 215 241.556C214.964 241.776 214.981 242 215.047 242.213C215.08 242.365 215.146 242.508 215.242 242.63C215.338 242.752 215.461 242.851 215.601 242.919C215.741 242.987 215.895 243.022 216.05 243.021C216.206 243.021 216.359 242.985 216.499 242.916C216.664 242.825 216.803 242.692 216.901 242.531C216.999 242.37 217.054 242.186 217.059 241.997C217.064 241.808 217.019 241.622 216.93 241.456C216.84 241.29 216.709 241.15 216.549 241.05C216.451 240.993 216.342 240.96 216.23 240.953C216.118 240.945 216.005 240.963 215.901 241.006C215.797 241.048 215.704 241.114 215.629 241.199C215.555 241.283 215.501 241.383 215.471 241.491C215.438 241.596 215.423 241.705 215.427 241.815V241.964C215.427 242.213 215.483 242.107 215.533 241.659L215.876 241.46H215.951L216.337 241.566L216.486 241.728C216.443 241.653 216.449 241.659 216.486 241.728C216.486 241.647 216.53 241.802 216.486 241.728C216.486 241.809 216.486 241.653 216.486 241.634C216.486 241.79 216.486 241.572 216.486 241.535C216.536 241.243 216.486 241.585 216.486 241.473C216.486 241.361 216.443 241.523 216.486 241.423C216.53 241.323 216.486 241.373 216.592 241.33C216.687 241.27 216.76 241.182 216.801 241.078C216.841 240.973 216.847 240.859 216.818 240.751C216.789 240.643 216.726 240.548 216.638 240.478C216.55 240.409 216.443 240.369 216.331 240.366L216.387 240.347Z" fill="#1A1C3F"/>
<path d="M212.387 238.288C213.079 238.338 213.87 237.909 214.549 237.741C215.346 237.548 216.156 237.629 216.947 237.467C217.13 237.413 217.289 237.301 217.403 237.148C217.516 236.996 217.578 236.811 217.578 236.621C217.578 236.431 217.516 236.246 217.403 236.094C217.289 235.942 217.13 235.83 216.947 235.775C215.985 235.628 215.001 235.744 214.1 236.111C213.359 236.366 212.294 236.802 211.97 237.567C211.929 237.64 211.907 237.723 211.908 237.807C211.909 237.891 211.931 237.973 211.973 238.046C212.015 238.118 212.075 238.179 212.148 238.222C212.221 238.264 212.303 238.287 212.387 238.288Z" fill="#1A1C3F"/>
<path d="M221.09 258.397C220.849 258.664 220.515 258.829 220.156 258.858C219.442 258.975 218.709 258.896 218.038 258.628C217.315 258.342 216.598 257.831 215.838 258.006C215.501 258.107 215.203 258.307 214.981 258.58C214.759 258.853 214.623 259.186 214.592 259.536C214.517 260.502 214.734 261.468 215.215 262.31C215.586 263.033 216.205 263.599 216.96 263.902C217.561 264.109 218.218 264.078 218.797 263.817C219.376 263.555 219.833 263.083 220.075 262.496C220.294 261.79 220.343 261.042 220.218 260.313C220.156 260.015 220.137 259.709 220.162 259.405C220.23 259.2 220.224 259.019 220.417 258.914" fill="#1A1C3F"/>
<path d="M220.841 257.975C218.804 259.318 216.667 255.661 214.524 257.595C212.96 259.001 213.527 261.588 214.561 263.137C215.595 264.686 217.527 265.513 219.284 264.655C219.679 264.465 220.033 264.196 220.322 263.866C220.611 263.536 220.83 263.15 220.966 262.733C221.134 262.158 221.184 261.555 221.115 260.96C221.072 260.525 220.716 259.635 220.997 259.256C221.464 258.634 220.436 257.844 219.894 258.41C219.072 259.275 219.52 260.432 219.327 261.52C219.298 261.909 219.132 262.274 218.858 262.552C218.584 262.83 218.221 263.002 217.832 263.038C216.829 263.087 216.162 262.142 215.832 261.309C215.577 260.687 215.209 259.206 216.218 258.976C216.748 258.858 217.682 259.505 218.218 259.598C219.34 259.828 220.673 259.673 221.439 258.752C221.769 258.348 221.346 257.639 220.816 257.975H220.841Z" fill="#1A1C3F"/>
<path d="M205.372 280.236C208.073 281.803 211.111 282.703 214.231 282.861C216.412 282.985 220.293 283.11 221.794 281.225C222.666 280.13 221.589 278.364 220.212 279.172C216.443 281.393 209.976 279.658 206.201 278.258C205.042 277.829 204.332 279.639 205.372 280.236Z" fill="#1A1C3F"/>
<path d="M114.782 352.873C112.473 348.745 110.864 344.264 110.022 339.612C109.455 336.502 109.287 333.093 110.819 330.282C112.209 327.757 114.775 326.146 117.049 324.404C119.931 322.188 122.561 319.665 124.893 316.878C127.329 313.992 129.472 310.882 131.796 307.909C134.686 304.214 137.839 300.731 140.991 297.254C146.598 291.034 152.467 284.671 160.08 281.15C167.572 277.682 176.132 277.305 183.902 280.1C191.671 282.895 198.023 288.636 201.578 296.078C203.384 300.105 204.621 304.363 205.254 308.73C207.616 322.691 206.978 336.993 203.385 350.69" fill="#206A5D"/>
<path d="M115.934 352.201C113.61 346.815 110.327 339.258 111.81 333.286C112.595 330.064 115.193 328.31 117.691 326.444C119.998 324.731 122.159 322.829 124.151 320.759C128.45 316.237 131.821 310.944 135.833 306.18C139.845 301.415 143.894 296.906 148.218 292.576C157.139 283.638 168.522 277.897 181.337 281.523C192.993 284.826 200.108 294.673 202.568 306.092C205.684 320.585 205.017 335.855 201.354 350.167C200.675 352.811 204.768 353.937 205.447 351.293C209.213 336.87 209.804 321.804 207.179 307.131C204.917 294.722 198.245 283.831 186.24 278.812C173.867 273.643 160.454 276.778 150.355 285.106C144.935 289.566 140.3 295.008 135.671 300.258C130.886 305.694 126.949 311.821 122.064 317.164C119.417 320.069 116.414 322.383 113.342 324.796C110.657 326.905 108.57 329.349 107.929 332.783C106.633 339.724 109.847 347.885 113.648 353.564C113.837 353.844 114.126 354.041 114.456 354.117C114.785 354.192 115.132 354.139 115.424 353.969C115.716 353.799 115.933 353.524 116.03 353.201C116.127 352.877 116.097 352.529 115.947 352.226L115.934 352.201Z" fill="#1A1C3F"/>
<path d="M607.294 83.9575H473.916V535.785H607.294V83.9575Z" fill="#7268EA"/>
<path d="M473.916 537.719H607.294C607.805 537.712 608.293 537.508 608.655 537.147C609.017 536.787 609.224 536.301 609.232 535.791V102.369C609.232 96.4908 609.388 90.5942 609.232 84.7163C609.232 84.4675 609.232 84.2125 609.232 83.9575C609.224 83.4475 609.017 82.9608 608.655 82.6008C608.293 82.2407 607.805 82.0357 607.294 82.0293H473.916C473.405 82.0357 472.917 82.2407 472.555 82.6008C472.194 82.9608 471.987 83.4475 471.979 83.9575V517.38C471.979 523.257 471.823 529.154 471.979 535.032C471.979 535.281 471.979 535.536 471.979 535.791C471.979 538.279 475.854 538.279 475.854 535.791V90.7373C475.854 88.8091 476.134 86.6321 475.854 84.7163C475.835 84.4637 475.835 84.2101 475.854 83.9575L473.916 85.8919H607.294L605.357 83.9699V529.011C605.357 530.939 605.076 533.116 605.357 535.032C605.375 535.284 605.375 535.538 605.357 535.791L607.294 533.856H473.916C471.424 533.856 471.424 537.719 473.916 537.719Z" fill="#1A1C3F"/>
<path d="M607.294 83.9575H473.916V148.888H607.294V83.9575Z" fill="#A19CDB"/>
<path d="M607.294 146.96H473.916L475.854 148.888V83.97L473.916 85.9044H607.294C609.786 85.9044 609.786 82.0417 607.294 82.0417H473.916C473.405 82.0482 472.917 82.2532 472.555 82.6132C472.193 82.9733 471.987 83.46 471.979 83.97V148.888C471.987 149.399 472.193 149.886 472.555 150.247C472.916 150.608 473.405 150.814 473.916 150.823H607.294C609.786 150.823 609.786 146.96 607.294 146.96Z" fill="#1A1C3F"/>
<path d="M361.639 538.042V148.683L473.916 83.9575L586.2 148.683V538.042" fill="#A19CDB"/>
<path d="M586.199 148.683V538.043H378.261V157.279L489.691 93.0513L586.199 148.683Z" fill="#D5D2FF"/>
<path d="M363.57 538.03V154.511C363.57 152.881 363.857 150.953 363.57 149.342C363.552 149.123 363.552 148.902 363.57 148.683L362.586 150.35L400.464 128.518L460.895 93.6857L474.857 85.637H472.901L510.779 107.469L571.21 142.301L585.178 150.35L584.262 148.658V522.219C584.262 527.245 583.988 532.357 584.262 537.377C584.262 537.601 584.262 537.819 584.262 538.042C584.262 540.53 588.131 540.53 588.131 538.042V159.605C588.131 156.147 588.436 152.533 588.131 149.081C588.012 147.688 587.327 147.128 586.218 146.462C583.508 144.833 580.729 143.296 577.994 141.717L544.109 122.186L477.343 83.7026C475.816 82.8256 474.558 81.6873 472.776 82.3839C470.658 83.2174 468.608 84.7911 466.646 85.9169L435.066 104.123L364.997 144.516L360.636 147.004C360.345 147.176 360.103 147.42 359.935 147.714C359.767 148.007 359.678 148.339 359.677 148.677V522.219C359.677 527.245 359.402 532.357 359.677 537.377C359.677 537.601 359.677 537.819 359.677 538.042C359.677 540.53 363.545 540.53 363.545 538.042L363.57 538.03Z" fill="#1A1C3F"/>
<path d="M373.239 324.118C365.579 315.258 359.735 304.984 356.038 293.876C355.415 291.93 354.792 289.871 353.303 288.434C351.814 286.997 349.248 286.456 347.771 287.887C346.294 289.317 346.662 291.619 347.079 293.547L353.042 320.915C352.816 317.845 352.052 314.839 350.786 312.033C350.288 310.938 349.304 309.694 348.164 310.067C347.403 310.316 347.055 311.168 346.812 311.933C345.123 317.189 344.145 322.799 345.098 328.23C346.052 333.66 349.16 338.903 354.057 341.459C355.826 342.386 357.795 342.94 359.608 343.692C364.152 345.566 368.095 348.647 371.009 352.599" fill="white"/>
<path d="M354.169 294.828C352.736 296.215 353.054 298.56 353.478 300.488L357.839 320.66C357.627 320.087 357.403 319.515 357.147 318.962C356.655 317.867 355.671 316.623 354.531 316.996C353.771 317.245 353.422 318.097 353.179 318.862C351.49 324.112 350.506 329.722 351.459 335.152C351.827 337.241 352.508 339.262 353.478 341.148C353.658 341.254 353.839 341.366 354.026 341.459C355.795 342.386 357.764 342.94 359.577 343.692C364.121 345.566 368.064 348.646 370.978 352.599L373.208 324.143C365.575 315.312 359.744 305.077 356.045 294.013C355.344 294.058 354.68 294.347 354.169 294.828Z" fill="#FFE2CC"/>
<path d="M374.267 323.515C369.506 317.372 365.383 310.761 361.963 303.785C360.284 300.123 358.816 296.368 357.565 292.539C356.643 289.852 355.49 287.078 352.774 285.778C350.562 284.727 347.79 284.901 346.139 286.835C344.239 289.062 344.774 292.023 345.335 294.654C347.204 303.592 349.21 312.505 351.148 321.4C351.609 323.527 355.216 323.098 355.004 320.877C354.699 317.593 353.066 305.669 347.167 308.332C344.6 309.488 344.114 313.811 343.609 316.169C342.793 319.749 342.57 323.439 342.949 327.091C343.628 332.838 346.363 338.486 351.048 341.982C353.833 344.047 357.203 344.781 360.243 346.336C363.678 348.101 366.662 350.629 368.965 353.725C369.139 354.001 369.369 354.238 369.64 354.42C369.912 354.602 370.218 354.725 370.539 354.782C370.861 354.839 371.191 354.828 371.508 354.75C371.826 354.672 372.123 354.529 372.381 354.329C372.64 354.13 372.853 353.878 373.009 353.591C373.164 353.304 373.258 352.988 373.283 352.663C373.309 352.338 373.266 352.011 373.158 351.703C373.049 351.395 372.878 351.114 372.654 350.876C369.73 347.118 365.932 344.129 361.589 342.168C357.085 340.147 352.736 339.214 349.808 334.885C346.974 330.686 346.319 325.474 346.861 320.529C346.967 319.54 347.659 312.779 348.693 312.443C349.578 312.144 350.973 320.025 351.054 320.908L354.917 320.386L350.5 300.171C349.939 297.608 347.74 292.321 349.104 289.995C351.297 286.263 353.976 293.727 354.568 295.375C358.449 306.291 364.293 316.598 372.373 324.964C373.289 325.909 375.083 324.622 374.242 323.521L374.267 323.515Z" fill="#1A1C3F"/>
<path d="M378.448 380.129C370.623 381.174 362.636 382.213 354.867 380.782C348.805 379.669 343.03 377.05 336.887 376.559C330.745 376.067 323.655 378.425 321.406 384.141C320.783 385.82 320.658 387.954 321.96 389.204C323.561 390.74 326.197 390.081 328.19 389.142C330.184 388.203 332.477 387.058 334.526 387.898C332.209 387.749 330.022 388.843 327.816 389.559C322.485 391.259 316.7 390.812 311.693 388.315C309.619 387.263 307.058 385.883 305.183 387.251C303.308 388.619 303.937 391.742 305.22 393.763C307.856 397.881 312.104 400.78 316.665 402.565C321.225 404.35 326.109 405.115 330.994 405.718C333.626 406.099 336.284 406.276 338.943 406.247C343.647 406.104 348.238 404.823 352.917 404.288C358.96 403.597 365.066 404.163 371.146 404.151C374.562 404.144 377.975 403.953 381.37 403.579C382.476 403.551 383.554 403.22 384.485 402.621C385.357 401.943 385.793 400.58 385.108 399.716" fill="white"/>
<path d="M380.528 386.262C374.236 387.015 367.888 387.45 361.683 386.305C355.615 385.192 349.846 382.573 343.697 382.082C337.791 381.591 331.006 383.761 328.502 389.03C330.439 388.122 332.595 387.114 334.545 387.935C332.402 387.798 330.364 388.725 328.315 389.428C328.315 389.509 328.246 389.59 328.215 389.664C327.555 391.344 327.467 393.477 328.763 394.727C330.364 396.27 333.006 395.611 334.993 394.671C336.981 393.732 339.28 392.581 341.329 393.427C339.012 393.284 336.825 394.373 334.613 395.088C329.282 396.785 323.497 396.339 318.49 393.844C316.415 392.793 313.855 391.406 311.98 392.78C310.104 394.155 310.734 397.265 312.023 399.287C312.403 399.89 312.819 400.469 313.269 401.022C314.357 401.611 315.481 402.133 316.633 402.583C321.188 404.368 326.078 405.133 330.962 405.737C333.595 406.118 336.252 406.295 338.912 406.265C343.616 406.122 348.207 404.841 352.886 404.306C358.929 403.616 365.034 404.182 371.115 404.169C374.53 404.162 377.943 403.971 381.338 403.597C382.445 403.57 383.523 403.238 384.453 402.639C385.325 401.961 385.762 400.599 385.076 399.734L380.528 386.262Z" fill="#FFE2CC"/>
<path d="M378.447 379.072C369.227 379.843 360.175 380.403 351.173 377.828C344.064 375.794 336.962 373.026 329.505 375.06C324.228 376.503 318.241 381.087 318.914 387.214C319.021 388.426 319.54 389.566 320.385 390.443C321.231 391.32 322.352 391.881 323.561 392.034C327.262 392.563 330.533 388.831 334.009 389.801L334.526 385.957C329.903 386.007 325.897 388.651 321.181 388.582C318.597 388.55 316.045 388.004 313.674 386.977C311.805 386.163 310.111 385.006 308.067 384.688C307.339 384.545 306.589 384.561 305.868 384.733C305.147 384.906 304.471 385.232 303.888 385.689C303.304 386.146 302.826 386.723 302.486 387.381C302.146 388.039 301.953 388.763 301.918 389.503C301.663 393.197 304.329 396.569 306.902 398.938C313.718 405.283 323.212 406.838 332.115 407.864C337.101 408.402 342.139 408.205 347.067 407.279C352.6 406.311 358.217 405.911 363.832 406.085C367.744 406.203 392.49 408.467 386.883 398.69C385.749 396.718 382.484 398.024 383.145 400.251C383.643 401.88 370.062 402.03 368.704 402.017C363.844 401.974 358.966 401.669 354.113 402.111C349.023 402.571 344.045 404.07 338.931 404.225C333.993 404.265 329.067 403.731 324.253 402.633C319.798 401.706 315.375 400.263 311.668 397.551C309.809 396.271 308.23 394.627 307.027 392.718C306.703 392.152 305.743 390.61 306.074 389.888C306.989 387.898 309.145 389.391 310.254 389.888C313.811 391.668 317.739 392.58 321.717 392.55C323.623 392.508 325.517 392.232 327.355 391.729C329.772 391.064 331.978 389.863 334.538 389.863C335.005 389.851 335.452 389.673 335.8 389.361C336.147 389.05 336.372 388.625 336.435 388.163C336.498 387.701 336.395 387.232 336.143 386.84C335.891 386.447 335.508 386.156 335.062 386.019C332.52 385.292 330.427 386.019 328.084 387.021C327.062 387.456 324.732 388.744 323.617 387.929C322.128 386.847 323.518 384.321 324.24 383.283C327.76 378.431 334.688 378.201 340.015 379.227C346.176 380.409 352.032 382.704 358.337 383.115C365.19 383.556 371.968 382.368 378.69 381.137C379.855 380.925 379.6 378.96 378.41 379.059L378.447 379.072Z" fill="#1A1C3F"/>
<path d="M405.293 352.531H542.54V176.306L405.293 176.306V352.531Z" fill="#FFCC90"/>
<path d="M405.293 354.465H542.54C543.05 354.459 543.539 354.254 543.9 353.894C544.262 353.534 544.469 353.047 544.477 352.537V176.312C544.469 175.802 544.262 175.314 543.901 174.953C543.539 174.592 543.051 174.386 542.54 174.378H405.293C404.781 174.384 404.292 174.59 403.93 174.951C403.568 175.313 403.362 175.801 403.355 176.312V352.537C403.355 355.025 407.23 355.025 407.23 352.537V176.312L405.293 178.24H542.54L540.602 176.312V352.537L542.54 350.603H405.293C402.801 350.603 402.801 354.465 405.293 354.465Z" fill="#1A1C3F"/>
<path d="M414.712 176.312H405.293V352.537H414.712V176.312Z" fill="#A19CDB"/>
<path d="M405.293 354.465H414.719C415.229 354.459 415.716 354.254 416.077 353.893C416.438 353.533 416.644 353.047 416.65 352.537V176.312C416.644 175.802 416.438 175.315 416.078 174.954C415.717 174.592 415.23 174.386 414.719 174.378H405.293C404.781 174.384 404.292 174.59 403.93 174.951C403.568 175.313 403.362 175.801 403.355 176.312V352.537C403.355 355.025 407.23 355.025 407.23 352.537V176.312L405.293 178.24H414.719L412.781 176.312V352.537L414.719 350.603H405.293C402.801 350.603 402.801 354.465 405.293 354.465Z" fill="#22906C"/>
<path d="M405.293 354.465H414.719C415.229 354.459 415.716 354.254 416.077 353.893C416.438 353.533 416.644 353.047 416.65 352.537V176.312C416.644 175.802 416.438 175.315 416.078 174.954C415.717 174.592 415.23 174.386 414.719 174.378H405.293C404.781 174.384 404.292 174.59 403.93 174.951C403.568 175.313 403.362 175.801 403.355 176.312V352.537C403.355 355.025 407.23 355.025 407.23 352.537V176.312L405.293 178.24H414.719L412.781 176.312V352.537L414.719 350.603H405.293C402.801 350.603 402.801 354.465 405.293 354.465Z" fill="#1A1C3F"/>
<path d="M406.227 222.415C400.103 228.311 403.586 240.098 397.156 245.653C396.384 246.318 395.424 246.984 395.325 247.998C395.335 248.63 395.497 249.251 395.798 249.808C397.592 254.23 396.216 259.218 395.225 263.89C394.234 268.561 393.867 274.003 397.094 277.53C399.686 280.36 403.791 281.057 407.398 282.382C412.877 284.411 417.557 288.144 420.749 293.03C423.166 296.762 425.079 301.421 429.278 302.845C432.281 303.866 435.626 302.845 438.312 301.154C440.997 299.462 443.296 297.21 445.881 295.425C448.66 293.522 452.049 291.911 453.226 288.757C454.566 285.168 452.379 281.231 449.806 278.388C447.233 275.546 444.081 272.958 442.916 269.307C441.838 265.917 442.691 262.235 443.806 258.864C445.545 253.608 447.937 248.495 448.572 242.997C449.118 238.227 448.304 233.4 446.225 229.072C444.145 224.743 440.884 221.089 436.816 218.529C432.748 215.969 428.04 214.607 423.231 214.6C418.423 214.593 413.71 215.941 409.635 218.49" fill="white"/>
<path d="M426.35 292.34C423.156 287.456 418.476 283.723 412.999 281.691C409.392 280.367 405.286 279.676 402.695 276.84C399.474 273.319 399.841 267.871 400.826 263.199C401.81 258.528 403.193 253.546 401.399 249.117C401.098 248.563 400.935 247.944 400.925 247.313C401.025 246.293 401.984 245.634 402.757 244.962C409.186 239.408 405.704 227.621 411.828 221.731L415.229 217.806C417.553 216.36 420.1 215.309 422.768 214.696C427.719 214.59 432.596 215.916 436.81 218.515C440.831 221.126 444.054 224.791 446.126 229.11C448.199 233.428 449.041 238.232 448.56 242.997C447.937 248.495 445.532 253.608 443.794 258.864C442.679 262.235 441.825 265.917 442.903 269.307C444.068 272.959 447.22 275.527 449.793 278.389C452.366 281.25 454.553 285.168 453.214 288.757C452.036 291.911 448.647 293.522 445.869 295.425C443.258 297.21 440.991 299.481 438.299 301.154C437.508 301.643 436.674 302.059 435.807 302.398C435.486 302.336 435.17 302.253 434.86 302.149C430.68 300.737 428.767 296.072 426.35 292.34Z" fill="#FFC090" fill-opacity="0.46"/>
<path d="M405.53 221.718C400.458 226.738 401.387 234.096 399.032 240.322C398.247 242.381 397.063 243.631 395.53 245.13C394.397 246.237 393.661 247.257 393.96 248.918C394.359 251.288 395.244 253.154 395.076 255.642C394.889 258.441 394.11 261.14 393.555 263.877C392.042 271.341 393.076 278.662 400.764 281.959C404.732 283.663 408.8 284.602 412.401 287.128C416.332 289.883 418.743 293.652 421.21 297.658C422.986 300.532 425.079 303.374 428.362 304.599C432.044 305.968 436.081 304.83 439.315 302.852C443.053 300.544 446.473 297.509 450.105 294.99C452.896 293.055 455.407 290.517 455.575 286.904C455.768 282.755 453.195 279.185 450.46 276.33C446.554 272.262 443.358 269.015 444.517 262.925C445.439 258.068 447.781 253.546 449.14 248.812C450.376 244.784 450.729 240.537 450.174 236.36C448.872 227.608 443.246 219.491 435.191 215.66C431.009 213.707 426.411 212.81 421.801 213.046C417.191 213.283 412.71 214.646 408.75 217.016C406.832 218.166 408.576 221.171 410.507 220.014C424.886 211.418 443.526 219.634 446.585 236.155C448.199 244.863 443.62 252.327 441.464 260.475C440.567 263.834 440.218 267.391 441.526 270.694C442.772 273.804 445.264 276.23 447.501 278.662C449.993 281.349 453.239 285.56 450.753 289.236C448.816 292.122 444.654 293.795 441.944 295.954C438.879 298.398 435.047 301.981 430.73 301.185C426.992 300.501 425.123 296.37 423.378 293.466C419.862 287.522 414.391 282.979 407.897 280.609C404.688 279.458 400.707 278.986 398.315 276.336C395.543 273.276 396.016 268.517 396.727 264.785C397.493 260.767 398.652 256.699 398.066 252.563C397.916 251.518 397.356 250.436 397.256 249.453C396.677 248.675 396.795 247.935 397.599 247.226C397.997 246.903 398.377 246.554 398.745 246.194C399.682 245.204 400.45 244.067 401.019 242.829C403.935 236.609 402.072 228.467 406.944 223.161C407.797 222.222 406.452 220.86 405.542 221.762L405.53 221.718Z" fill="#1A1C3F"/>
<path d="M406.339 241.336C406.408 241.373 406.414 241.379 406.433 241.404C406.451 241.429 406.52 241.51 406.433 241.448V241.51C406.433 241.417 406.433 241.423 406.433 241.541C406.433 241.541 406.433 241.784 406.433 241.672C406.433 241.56 406.433 241.746 406.433 241.771C406.433 241.771 406.433 241.69 406.433 241.74C406.433 241.79 406.433 241.784 406.564 241.603L406.956 241.498H407.025L407.367 241.697C407.442 241.759 407.486 242.48 407.492 241.852C407.493 241.743 407.478 241.634 407.448 241.529C407.419 241.42 407.364 241.32 407.29 241.236C407.215 241.152 407.122 241.086 407.018 241.043C406.914 241 406.802 240.982 406.689 240.99C406.577 240.997 406.468 241.031 406.371 241.087C406.206 241.195 406.074 241.346 405.99 241.524C405.905 241.702 405.871 241.899 405.891 242.095C405.903 242.266 405.958 242.432 406.051 242.578C406.143 242.723 406.27 242.844 406.42 242.928C406.56 242.997 406.713 243.033 406.869 243.034C407.025 243.034 407.178 242.999 407.318 242.931C407.458 242.864 407.581 242.765 407.677 242.642C407.773 242.52 407.84 242.377 407.872 242.225C407.939 242.013 407.955 241.788 407.92 241.568C407.884 241.348 407.798 241.14 407.668 240.959C407.538 240.778 407.368 240.63 407.171 240.526C406.974 240.421 406.755 240.365 406.532 240.359C406.421 240.363 406.313 240.403 406.225 240.472C406.137 240.541 406.074 240.637 406.045 240.745C406.016 240.853 406.022 240.967 406.062 241.071C406.103 241.175 406.176 241.264 406.271 241.323L406.339 241.336Z" fill="#1A1C3F"/>
<path d="M411.417 235.639C410.663 234.688 409.641 233.986 408.483 233.623C408.042 233.464 407.587 233.347 407.124 233.275C406.588 233.144 406.028 233.152 405.496 233.298C404.964 233.443 404.478 233.723 404.084 234.108C403.591 234.605 403.314 235.275 403.314 235.974C403.314 236.673 403.591 237.344 404.084 237.84C404.704 238.429 405.522 238.764 406.377 238.78C406.807 238.78 407.224 238.73 407.623 238.742C407.71 238.742 408.053 238.78 407.785 238.742C408.096 238.78 408.408 238.861 408.726 238.885C409.155 238.917 409.579 238.885 410.009 238.954C410.392 238.955 410.767 238.842 411.086 238.629C411.404 238.417 411.652 238.114 411.797 237.76C411.935 237.403 411.971 237.014 411.899 236.638C411.828 236.262 411.652 235.914 411.392 235.632L411.417 235.639Z" fill="#1A1C3F"/>
<path d="M416.787 278.258C413.049 279.645 406.545 281.368 402.776 279.172C401.411 278.37 400.284 280.124 401.193 281.225C402.701 283.091 406.582 282.985 408.757 282.861C411.877 282.703 414.914 281.803 417.616 280.236C418.65 279.614 417.958 277.829 416.787 278.258Z" fill="#1A1C3F"/>
<path d="M508.206 352.873C510.513 348.749 512.122 344.272 512.966 339.624C513.533 336.514 513.701 333.106 512.168 330.294C510.779 327.769 508.212 326.158 505.938 324.417C503.057 322.201 500.427 319.677 498.095 316.89C495.659 314.004 493.516 310.894 491.192 307.921C488.301 304.226 485.149 300.743 481.996 297.266C476.389 291.046 470.521 284.683 462.908 281.163C455.415 277.695 446.855 277.317 439.086 280.112C431.316 282.907 424.965 288.649 421.41 296.091C419.604 300.118 418.367 304.375 417.734 308.742C415.372 322.703 416.009 337.006 419.603 350.702" fill="white"/>
<path d="M509.352 353.539C512.972 348.127 515.744 340.931 515.265 334.319C514.772 327.583 509.346 324.989 504.798 320.958C499.422 316.225 495.615 310.204 491.123 304.699C486.475 298.912 481.482 293.41 476.171 288.222C466.652 279.085 454.298 273.861 441.059 277.319C429.116 280.429 420.326 290.039 417.036 301.732C412.563 317.649 413.46 335.414 417.56 351.293C418.239 353.937 422.332 352.817 421.653 350.167C418.285 337.221 417.594 323.725 419.622 310.503C421.491 298.828 426.344 288.31 437.545 283.047C463.512 270.862 482.202 300.669 495.908 317.456C497.97 320.006 500.264 322.359 502.761 324.485C505.004 326.351 507.801 327.863 509.614 330.164C514.181 335.899 509.483 346.423 506.991 352.201C506.84 352.504 506.811 352.852 506.908 353.176C507.005 353.499 507.221 353.774 507.514 353.944C507.806 354.114 508.152 354.167 508.482 354.092C508.812 354.016 509.101 353.819 509.29 353.539H509.352Z" fill="#1A1C3F"/>
<path d="M405.293 354.465H542.539C545.031 354.465 545.031 350.603 542.539 350.603H405.293C402.801 350.603 402.801 354.465 405.293 354.465Z" fill="#1A1C3F"/>
<path d="M420.064 341.976L382.939 320.653C381.739 319.868 380.408 319.303 379.008 318.986C376.161 318.52 373.308 320.23 371.582 322.513C369.856 324.796 369.047 327.663 368.293 330.444C366.174 338.293 364.281 346.491 365.763 354.484C366.847 360.331 369.694 365.717 373.059 370.656C376.012 374.966 379.575 379.128 384.372 381.23C390.384 383.83 397.3 382.741 403.685 381.23C410.071 379.719 416.669 377.753 421.341 373.144C422.114 372.385 422.724 370.88 421.74 370.42" fill="white"/>
<path d="M420.687 340.906C408.613 333.317 396.521 325.71 384.123 318.632C379.382 315.92 374.41 315.777 370.467 320.044C366.642 324.193 365.551 330.724 364.374 336.023C362.972 342.305 362.212 348.762 363.396 355.137C364.442 360.828 367.134 366.221 370.249 371.048C373.221 375.651 376.765 380.222 381.65 382.916C387.014 385.876 393.119 385.988 399.038 385.099C405.23 384.16 411.753 382.648 417.316 379.687C420.724 377.871 429.153 371.95 423.067 368.112C420.899 366.744 417.84 369.561 419.416 371.763C418.886 371.023 419.734 371.141 418.849 371.359C418.569 371.421 417.989 372.136 417.746 372.323C416.923 372.958 416.052 373.53 415.142 374.033C413.071 375.183 410.885 376.112 408.619 376.808C404.201 378.306 399.625 379.293 394.982 379.75C390.048 380.135 385.307 379.333 381.376 376.148C377.924 373.355 375.258 369.574 372.959 365.817C367.464 356.848 366.853 347.449 369.096 337.323C370.043 333.075 370.822 327.576 373.538 324.018C375.407 321.53 377.962 320.753 380.809 322.152C383.132 323.303 385.369 324.69 387.662 325.959C398.172 331.831 408.8 337.466 419.472 343.039C419.753 343.166 420.071 343.184 420.365 343.09C420.659 342.996 420.907 342.797 421.062 342.531C421.217 342.265 421.268 341.95 421.204 341.649C421.141 341.348 420.968 341.081 420.718 340.899L420.687 340.906Z" fill="#1A1C3F"/>
<path d="M413.298 207.748C413.589 207.727 413.86 207.597 414.058 207.384C414.256 207.171 414.366 206.891 414.366 206.6C414.366 206.31 414.256 206.03 414.058 205.817C413.86 205.604 413.589 205.474 413.298 205.453C413.008 205.474 412.737 205.604 412.539 205.817C412.341 206.03 412.23 206.31 412.23 206.6C412.23 206.891 412.341 207.171 412.539 207.384C412.737 207.597 413.008 207.727 413.298 207.748Z" fill="#3FC091"/>
<path d="M403.704 263.672C405.187 263.292 407.124 262.216 407.517 260.612C407.567 260.358 407.537 260.095 407.431 259.86C407.325 259.624 407.148 259.427 406.924 259.297C406.701 259.166 406.443 259.108 406.185 259.131C405.927 259.154 405.683 259.256 405.486 259.424C405.043 259.853 404.769 260.425 404.339 260.867C403.931 261.27 403.452 261.595 402.925 261.825C401.847 262.303 402.626 263.946 403.704 263.691V263.672Z" fill="#232323"/>
<path d="M443.264 291.308C433.259 299.953 429.683 313.613 424.824 325.909C421.643 333.969 417.724 341.719 413.118 349.06C407.984 357.252 401.698 365.164 393.038 369.481C387.575 372.199 381.475 373.325 375.476 374.457L364.81 376.41C361.072 377.088 357.097 377.927 354.624 380.764C351.079 384.819 352.188 391.089 354.244 396.059C357.291 403.294 361.853 409.794 367.623 415.125C373.393 420.456 380.238 424.493 387.699 426.966C390.631 427.97 393.683 428.578 396.776 428.776C403.505 429.099 410.164 426.742 415.84 423.116C421.516 419.489 426.3 414.644 430.748 409.593C448.199 389.77 461.148 366.413 468.708 341.124" fill="white"/>
<path d="M442.479 290.524C434.38 297.204 430.15 306.696 426.356 316.237C421.995 327.234 417.341 337.79 410.999 347.829C404.732 357.781 396.988 366.389 385.344 369.698C379.575 371.334 373.563 372.186 367.67 373.219C362.648 374.121 356.836 374.668 353.067 378.518C345.933 385.808 351.266 397.52 355.702 404.735C360.877 413.13 368.101 420.076 376.697 424.926C386.185 430.25 397.256 433.254 407.847 429.591C418.631 425.859 426.824 417.58 434.013 409.065C450.668 389.294 463.102 366.335 470.552 341.596C471.268 339.226 467.561 338.213 466.851 340.576C460.662 361.245 450.789 380.63 437.707 397.8C431.297 406.178 424.095 415.086 415.111 420.814C405.056 427.233 394.172 427.432 383.432 422.525C374.99 418.677 367.709 412.682 362.318 405.14C358.1 399.175 349.41 384.552 359.951 380.303C364.935 378.294 370.897 377.909 376.149 376.926C381.401 375.943 386.74 374.898 391.724 372.821C400.67 369.089 407.349 361.954 412.731 354.098C419.516 344.196 424.5 333.205 428.518 321.929C432.256 311.355 435.701 300.121 444.012 292.104C445.052 291.096 443.526 289.659 442.448 290.542L442.479 290.524Z" fill="#1A1C3F"/>
<path d="M288.044 320.429C293.396 314.409 298.791 308.344 305.201 303.468C308.073 301.291 311.288 299.3 314.883 298.983C319.138 298.604 323.219 300.625 326.925 302.758C329.505 304.251 332.184 305.987 333.392 308.711C333.974 310.203 334.28 311.788 334.295 313.388C334.42 315.478 334.401 317.674 333.461 319.552C332.838 320.759 331.592 321.866 330.283 321.474C329.237 321.163 328.695 320.013 328.464 318.943C328.234 317.873 328.178 316.722 327.58 315.833C327.58 318.532 324.888 320.467 322.29 321.201C319.692 321.935 316.851 321.997 314.484 323.297C313.303 324.01 312.216 324.869 311.251 325.853L301.769 334.76" fill="white"/>
<path d="M314.883 298.983C311.288 299.3 308.073 301.291 305.201 303.468C298.791 308.344 293.396 314.409 288.044 320.429L295.582 328.279C299.725 325.132 304.51 321.599 306.447 319.783C307.413 318.796 308.499 317.935 309.681 317.22C312.048 315.92 314.883 315.864 317.487 315.124C320.091 314.384 322.776 312.455 322.776 309.756C323.399 310.67 323.399 311.821 323.661 312.866C323.923 313.911 324.433 315.087 325.48 315.398C326.77 315.789 328.053 314.682 328.657 313.476C329.598 311.61 329.611 309.408 329.492 307.312C329.453 306.214 329.309 305.123 329.062 304.052C328.365 303.586 327.642 303.15 326.925 302.734C323.219 300.625 319.138 298.604 314.883 298.983Z" fill="#FFDBC0"/>
<path d="M288.779 321.157C292.667 317.288 296.392 313.233 300.485 309.569C304.578 305.906 309.706 301.185 315.437 300.911C320.241 300.681 326.969 304.096 330.265 307.591C332.277 309.719 332.557 312.686 332.451 315.497C332.46 316.375 332.326 317.249 332.053 318.084C330.701 318.98 330.065 318.825 330.14 317.637C329.723 316.89 329.648 315.684 329.249 314.85C328.352 312.953 325.891 314.153 325.704 315.808C325.349 318.918 321.169 319.397 318.789 319.87C316.409 320.342 314.198 320.902 312.185 322.358C310.173 323.813 308.248 325.822 306.348 327.589C304.292 329.504 301.582 331.321 300.311 333.865C299.495 335.494 301.102 336.875 302.66 336.21C305.55 334.966 307.899 331.856 310.167 329.735C313.045 327.004 315.35 324.69 319.362 323.869C324.022 322.917 329.044 321.288 329.511 315.783L325.966 316.741C327.249 319.26 326.851 323.16 330.695 323.353C333.878 323.508 335.591 320.243 336.065 317.55C336.688 314.209 336.451 309.911 334.713 306.907C332.975 303.903 329.928 302.049 327.038 300.451C319.829 296.47 312.827 295.73 305.905 300.706C298.728 305.875 292.773 312.76 287.34 319.671C286.536 320.691 287.832 322.103 288.804 321.132L288.779 321.157Z" fill="#1A1C3F"/>
<path d="M200.17 292.794C205.852 303.293 213.539 312.698 221.184 322.028C224.741 326.382 228.361 330.779 233.021 334.126C237.681 337.472 243.518 339.724 249.356 339.027C252.72 338.642 255.885 337.335 258.956 335.986C262.935 334.332 266.769 332.351 270.419 330.064C276.076 326.332 280.873 321.4 287.134 318.675C289.041 317.842 291.184 317.226 293.227 317.674C294.604 318.046 295.891 318.693 297.009 319.577C302.485 323.471 307.295 329.461 306.13 335.824C305.619 338.586 304.043 341.061 302.491 343.462C299.781 347.667 297.158 351.952 293.9 355.79C251.1 406.247 211.664 370.718 182.502 346.143C171.387 336.813 174.839 340.545 167.188 328.385" fill="#206A5D"/>
<path d="M199.273 293.316C204.599 304.674 212.761 314.415 220.604 324.105C227.395 332.502 236.055 341.621 247.786 341.353C253.686 341.217 259.274 338.449 264.495 335.936C269.834 333.367 274.419 330.008 279.104 326.425C281.261 324.7 283.553 323.148 285.957 321.785C289.427 319.919 292.405 319.16 295.813 321.574C300.317 324.765 305.257 330.282 303.625 336.253C302.822 339.164 300.822 341.752 299.208 344.258C297.293 347.372 295.213 350.383 292.978 353.277C288.972 358.25 284.448 362.785 279.484 366.806C271.927 372.895 262.844 377.628 253.075 378.624C235.83 380.39 219.782 371.589 206.306 361.83C198.444 356.12 191.118 349.719 183.648 343.518C180.963 341.291 177.866 339.164 175.58 336.527C173.181 333.721 171.456 330.17 169.487 327.066C167.618 324.155 163.002 326.824 164.839 329.778C166.777 332.888 168.515 336.228 170.714 339.183C172.459 341.528 174.745 343.325 176.944 345.191C184.071 351.175 191.08 357.277 198.475 362.931C212.661 373.797 229.345 384.141 247.848 383.967C270.606 383.761 289.788 367.173 301.625 349.035C304.803 344.165 309.064 338.884 308.478 332.72C307.961 327.222 304.279 322.55 300.124 319.167C298.255 317.637 296.187 316.057 293.788 315.509C290.766 314.794 287.701 315.876 285.004 317.164C279.484 319.814 275.073 324.155 270.052 327.576C264.289 331.513 256.744 335.581 249.817 336.769C242.135 338.082 234.721 333.896 229.42 328.714C224.236 323.639 219.738 317.736 215.209 312.076C210.126 305.741 205.391 299.136 201.023 292.29C200.885 292.053 200.657 291.881 200.391 291.812C200.126 291.743 199.843 291.781 199.606 291.92C199.369 292.059 199.197 292.285 199.127 292.551C199.058 292.816 199.096 293.098 199.235 293.335L199.273 293.316Z" fill="#2E2E2E"/>
<path d="M140.275 348.668C144.013 345.179 147.751 341.665 151.987 338.716C155.171 336.496 158.765 334.779 161.718 332.223C164.042 330.214 165.612 327.75 165.737 324.628C165.737 323.963 165.419 322.569 165.78 322.053C166.273 321.363 167.226 321.649 167.836 321.238C168.958 320.486 169.213 319.577 169.437 318.333C170.596 311.933 176.951 315.143 179.873 318.439C183.031 322.009 185.878 325.86 189.031 329.442C195.847 337.076 203.218 344.197 211.085 350.746C212.138 351.635 213.658 350.167 212.618 349.222C204.216 341.575 196.334 333.377 189.025 324.684C184.701 319.565 178.078 307.672 169.643 312.312C168.426 312.954 167.455 313.98 166.883 315.23C166.559 315.964 166.702 317.033 166.372 317.687C165.693 319.024 165.214 318.495 164.161 319.279C161.5 321.238 163.444 325.58 161.631 328.217C159.002 332.055 153.813 334.02 150.218 336.801C146.131 339.96 142.511 343.643 138.904 347.337C138.723 347.519 138.622 347.765 138.623 348.021C138.623 348.277 138.726 348.522 138.907 348.703C139.089 348.883 139.335 348.984 139.592 348.984C139.848 348.983 140.094 348.881 140.275 348.699V348.668Z" fill="#232323"/>
<path d="M214.312 352.929C220.741 358.465 227.956 363.422 236.26 365.605C244.565 367.789 253.206 366.793 261.13 363.379C277.235 356.406 290.667 342.473 299.663 327.688C300.647 326.071 298.099 324.578 297.134 326.208C288.916 339.942 277.011 352.332 262.526 359.51C254.888 363.285 246.465 364.971 238.061 363.018C229.831 361.108 222.367 356.655 215.776 351.498C214.773 350.715 213.34 352.064 214.343 352.929H214.312Z" fill="#232323"/>
<path d="M414.418 232.378C413.657 229.688 414.055 226.125 410.973 224.805C408.47 223.758 404.498 224.982 402.155 226.012C400.287 226.833 401.545 229.675 403.425 228.902C405.02 228.244 407.429 227.632 409.179 228.063C411.302 228.596 411.537 231.31 412.402 232.968C412.917 233.964 414.759 233.602 414.418 232.378Z" fill="#1A1C3F"/>
<path d="M410.993 260.867C411.274 260.867 411.543 260.755 411.742 260.557C411.941 260.359 412.052 260.09 412.052 259.809C412.052 259.529 411.941 259.26 411.742 259.062C411.543 258.863 411.274 258.752 410.993 258.752C410.712 258.752 410.443 258.863 410.244 259.062C410.046 259.26 409.934 259.529 409.934 259.809C409.934 260.09 410.046 260.359 410.244 260.557C410.443 260.755 410.712 260.867 410.993 260.867Z" fill="#1A1C3F"/>
<path d="M213.951 217.514C213.598 222.471 211.342 227.102 207.652 230.439C206.976 231.161 206.054 231.605 205.067 231.683C204.088 231.683 203.117 230.644 203.503 229.742C202.946 232.939 201.549 235.932 199.453 238.413C197.348 240.901 194.339 243.656 195.335 246.76C194.949 243.868 191.41 242.027 188.663 243.028C185.916 244.029 184.377 247.314 184.969 250.175C185.56 253.036 187.959 255.325 190.744 256.221C188.095 260.803 185.049 265.144 181.642 269.195C181.21 269.823 180.594 270.301 179.879 270.564C178.19 271.012 176.882 269.146 176.016 267.628C174.004 264.126 171.331 261.041 169.163 257.614C165.843 252.314 163.818 246.107 164.042 239.862C164.266 233.617 166.877 227.366 171.618 223.286C173.157 221.955 174.92 220.847 176.191 219.261C177.169 218.017 177.817 216.599 178.683 215.312C183.579 208.04 193.335 205.982 201.534 207.387C206.574 208.258 211.334 210.267 215.832 212.643C220.33 215.019 224.965 216.997 229.538 219.224C231.756 220.294 234.154 221.55 235.064 223.839C236.011 226.228 234.989 228.921 233.756 231.179C231.787 234.772 229.264 238.034 226.28 240.845C226.132 240.999 225.957 241.123 225.763 241.212C224.828 241.554 224.261 240.185 224.155 239.19C223.404 232.427 220.141 226.191 215.01 221.712" fill="#232323"/>
<path d="M212.972 217.246C212.574 219.717 211.763 222.103 210.574 224.306C210.013 225.348 209.351 226.333 208.599 227.248C208.412 227.472 205.085 230.302 205.141 229.736C205.334 227.87 202.276 227.478 201.871 229.294C200.936 233.542 198.756 236.335 196.058 239.619C194.189 241.921 192.943 244.216 193.597 247.226L197.055 246.312C195.746 240.602 188.27 239.302 184.788 243.824C180.583 249.291 184.626 255.829 190.264 257.968L189.186 255.319C187.841 257.595 186.399 259.812 184.863 261.968C184.078 263.067 183.268 264.147 182.433 265.208C181.972 265.787 180.527 268.2 179.754 268.393C178.29 268.766 176.047 263.809 175.393 262.895C173.935 260.774 172.334 258.746 170.97 256.563C165.537 247.855 163.618 235.831 170.347 227.266C171.773 225.456 173.537 224.156 175.293 222.688C177.003 221.205 178.443 219.437 179.549 217.464C181.842 213.702 185.51 210.979 189.778 209.869C199.946 207.002 208.954 211.704 217.813 216.207C220.586 217.619 223.42 218.95 226.211 220.319C228.41 221.389 231.849 222.502 232.728 224.99C233.65 227.609 231.195 230.93 229.812 233.014C228.292 235.315 226.379 237.903 224.205 239.663L225.763 239.041C226.386 239.663 226.504 239.52 226.112 238.686L225.974 237.735C225.788 236.789 225.626 235.869 225.351 234.923C224.837 233.062 224.14 231.255 223.271 229.53C221.544 226.086 219.186 222.995 216.318 220.418C214.53 218.807 211.864 221.457 213.664 223.068C216.585 225.591 218.881 228.754 220.374 232.311C220.974 233.798 221.437 235.336 221.757 236.907C222.056 238.382 221.944 240.154 222.666 241.516C226.006 247.848 233.158 236.839 234.815 234.202C238.553 228.268 239.381 221.762 232.447 217.961C228.834 215.977 224.878 214.522 221.14 212.786C217.57 211.126 214.106 209.253 210.431 207.81C198.967 203.351 183.679 203.574 176.514 215.169C175.356 217.035 174.353 218.627 172.646 220.07C171.317 221.094 170.046 222.19 168.839 223.354C166.647 225.769 164.952 228.59 163.849 231.658C161.239 238.5 161.656 245.883 164.335 252.613C166.011 256.83 168.521 260.456 171.188 264.114C172.957 266.552 174.645 270.8 177.555 272.162C180.67 273.612 182.732 271.005 184.464 268.81C187.355 265.108 189.984 261.209 192.332 257.141C192.46 256.9 192.533 256.633 192.547 256.361C192.56 256.088 192.514 255.816 192.41 255.563C192.307 255.311 192.149 255.084 191.949 254.899C191.748 254.713 191.509 254.574 191.248 254.491C188.239 253.359 185.641 250.299 187.105 246.99C188.432 243.955 192.837 243.725 193.647 247.245C194.164 249.478 197.553 248.526 197.08 246.3C196.419 243.19 200.282 240.428 201.889 238.164C203.548 235.78 204.656 233.059 205.135 230.196L201.864 229.754C201.788 230.522 201.994 231.29 202.443 231.917C202.892 232.545 203.555 232.987 204.307 233.163C206.356 233.692 208.138 232.224 209.477 230.849C212.944 227.268 214.898 222.493 214.935 217.513C214.935 216.406 213.134 216.102 212.948 217.246H212.972Z" fill="#1A1C3F"/>
<path d="M440.15 257.197C435.184 256.845 433.261 251.878 429.919 248.195C429.195 247.52 428.75 246.599 428.673 245.614C428.673 244.801 429.393 243.992 430.156 243.966C427.127 243.361 424.297 242.001 421.932 240.009C419.629 238.066 417.096 235.353 414.272 235.738C414.046 235.812 413.812 235.866 413.571 235.898C413.807 235.822 414.04 235.77 414.272 235.738C416.755 234.93 418.229 231.751 417.309 229.236C416.306 226.493 413.017 224.957 410.151 225.548C407.285 226.139 404.062 229.38 403.165 232.16C398.576 229.516 403.485 229.342 399.427 225.94C399.427 224.696 396.851 228.274 393.113 227.341C391.244 225.164 393.546 219.652 395.066 218.787C398.574 216.778 399.267 211.932 402.7 209.768C408.008 206.452 414.225 204.431 420.48 204.655C426.735 204.879 432.996 207.485 437.083 212.218C438.416 213.755 439.525 215.515 441.114 216.784C442.36 217.76 443.78 218.407 445.07 219.272C452.353 224.161 454.415 233.901 453.007 242.087C452.135 247.119 450.123 251.871 447.743 256.362C445.417 260.75 445.717 265.729 444.199 265.283L440.15 257.197Z" fill="#232323"/>
<path d="M22.5899 538.03C16.659 519.065 16.0484 494.758 22.3656 475.923C25.4308 466.786 30.1968 457.767 38.1089 452.287C46.021 446.808 57.6524 445.756 65.0349 451.964C70.7416 456.76 72.8162 464.609 73.5638 472.023C74.3315 479.683 74.0232 487.413 72.648 494.988C74.9923 489.633 79.1498 485.273 84.3915 482.672C86.7901 481.49 89.7119 480.725 92.0793 481.969C93.5434 482.734 94.5713 484.152 95.375 485.577C99.2662 492.357 100.458 500.351 98.7143 507.969C100.421 503.291 106.315 500.642 110.956 502.464C115.598 504.287 118.115 510.233 116.177 514.823C119.342 504.685 125.522 494.739 135.328 490.634C145.134 486.528 158.659 490.783 161.575 500.99C163.656 508.292 160.098 515.918 156.635 522.642C156.635 518.07 163.755 516.384 166.92 519.7C170.085 523.015 169.574 528.489 167.419 532.525C168.267 531.554 169.414 530.892 170.681 530.643C171.947 530.394 173.26 530.572 174.414 531.15C175.567 531.727 176.496 532.672 177.053 533.834C177.611 534.996 177.765 536.31 177.493 537.57" fill="#206A5D"/>
<path d="M23.6739 537.738C18.1417 518.176 17.5685 495.821 24.1723 476.44C27.3309 467.184 32.508 457.431 41.4418 452.611C49.9645 448.008 61.5398 448.785 67.0285 457.537C69.9503 462.19 70.9845 467.812 71.4331 473.211C72.0117 480.274 71.6808 487.381 70.4487 494.359C70.05 496.661 73.4267 498.595 74.5668 496.095C75.9888 492.878 78.1006 490.011 80.7532 487.698C83.3822 485.446 88.7961 481.646 91.9983 484.725C94.4903 487.15 95.836 491.647 96.5462 494.956C97.3979 499.037 97.3702 503.252 96.4652 507.322C95.9419 509.71 99.5802 511.626 100.677 509.095C102.178 505.555 106.178 503.092 110.022 504.579C113.866 506.065 115.224 510.544 113.891 514.164L118.401 515.408C122.139 503.758 130.992 490.528 144.897 491.722C150.062 492.164 155.557 494.776 157.98 499.553C161.581 506.625 157.401 514.836 154.161 521.192L159.401 522.611C159.556 520.334 163.388 520.396 164.702 521.429C167.537 523.662 166.409 528.464 165.101 531.169C163.855 533.763 167.014 536.562 169.244 534.354C171.973 531.648 175.399 534.124 175.256 537.539C175.156 539.983 178.994 540.537 179.561 538.117C181.467 529.689 171.549 524.862 165.512 530.653L169.655 533.844C172.534 528.159 173.2 519.27 166.378 516.03C161.089 513.542 154.199 516.552 153.781 522.629C153.594 525.385 157.775 526.486 159.021 524.047C163.02 516.21 167.319 506.855 163.456 498.116C160.597 491.66 153.999 487.772 147.19 486.777C130.039 484.258 118.532 499.628 113.878 514.189C112.956 517.081 117.373 518.213 118.389 515.433C120.519 509.58 117.51 502.371 111.536 500.225C105.387 497.992 98.8762 501.587 96.4528 507.353L100.901 508.597C102.065 503.374 101.999 497.953 100.708 492.761C99.5864 488.363 97.4433 482.324 93.1945 480.01C88.8335 477.64 83.538 480.122 79.8934 482.697C75.8742 485.542 72.689 489.407 70.6668 493.893L74.7848 495.622C76.8096 483.928 77.4824 470.244 72.6542 459.092C68.424 449.32 58.9482 444.363 48.4693 446.03C25.3124 449.675 17.6495 478.287 16.3412 498.017C15.4434 511.695 17.1753 525.418 21.4435 538.447C21.9046 539.834 24.0664 539.268 23.6614 537.825L23.6739 537.738Z" fill="#232323"/>
<path d="M419.902 537.539C416.756 529.241 416.482 518.617 423.16 512.758C427.521 508.927 434.05 508.131 439.583 509.903C445.115 511.676 449.706 515.725 453.077 520.477C452.609 518.684 452.819 516.782 453.667 515.134C454.514 513.485 455.94 512.207 457.672 511.541C459.404 510.876 461.321 510.871 463.057 511.526C464.792 512.182 466.225 513.453 467.082 515.097C465.344 511.365 465.213 506.569 468.023 503.609C470.832 500.648 476.944 501.363 477.953 505.319C475.249 494.795 476.14 482.989 482.202 473.964C488.264 464.939 500.038 459.49 510.492 462.519C517.775 464.628 523.575 470.412 527.17 477.074C530.765 483.736 532.416 491.262 533.656 498.726C533.593 491.585 539.319 484.843 546.383 483.736C548.489 483.406 550.782 483.574 552.52 484.793C554.258 486.012 555.199 488.525 554.177 490.391C554.045 486.025 554.982 481.693 556.906 477.771C558.563 474.381 561.186 471.19 564.812 470.139C568.438 469.088 573.035 471.028 573.777 474.723C575.615 469.803 578.2 464.958 582.374 461.767C586.548 458.576 592.61 457.413 597.152 460.069C600.354 461.935 602.354 465.362 603.618 468.845C606.796 477.615 606.11 487.318 604.304 496.462C601.731 509.306 610.229 526.361 603.463 537.576" fill="#D1F6C1"/>
<path d="M421.148 537.184C418.531 529.347 417.759 518.002 425.877 513.013C435.141 507.322 445.707 513.828 451.27 521.472C451.529 521.876 451.922 522.176 452.381 522.318C452.839 522.461 453.334 522.437 453.776 522.251C454.219 522.065 454.581 521.729 454.8 521.302C455.018 520.875 455.079 520.385 454.971 519.917C453.762 513.585 461.923 510.712 465.15 516.185C466.353 518.213 470.085 516.851 469.113 514.518C467.948 511.726 467.1 507.621 469.586 505.188C471.144 503.677 474.788 503.515 475.579 505.929C476.539 508.852 480.919 507.67 480.215 504.685C476.408 488.513 482.121 467.502 501.041 464.597C509.315 463.353 516.841 467.551 521.719 474.051C527.214 481.378 529.145 490.696 530.646 499.553C531.269 503.036 536.584 502.041 536.652 498.738C536.696 496.764 537.204 494.828 538.135 493.085C539.065 491.342 540.393 489.842 542.01 488.705C543.555 487.576 545.362 486.857 547.262 486.616C549.162 486.423 552.296 486.976 551.255 489.558L557.143 490.354C557.08 485.34 558.245 479.78 561.547 475.836C563.628 473.348 569.478 470.786 570.743 475.513C571.596 478.716 575.689 478.206 576.748 475.513C579.396 468.795 586.299 458.221 595.065 462.631C598.803 464.497 600.391 469.131 601.326 472.894C602.516 477.646 602.572 482.66 602.229 487.524C601.905 491.815 600.703 496.039 600.634 500.349C600.685 504.135 601.146 507.903 602.011 511.589C603.513 518.872 606.335 527.369 602.865 534.51C601.45 537.427 605.444 539.815 607.226 537.066C612.633 528.762 609.662 518.916 607.998 509.934C606.995 505.043 606.94 500.005 607.836 495.093C608.92 489.296 609.581 483.344 608.926 477.466C607.855 467.775 603.382 455.696 591.881 455.341C580.873 455.018 574.157 464.671 570.699 473.858H576.705C574.742 467.016 566.376 465.032 560.7 468.683C553.741 473.162 551.037 482.541 551.106 490.354C551.106 493.955 555.772 494.129 556.993 491.15C558.314 487.909 556.862 484.072 553.965 482.174C550.645 480.004 546.215 480.24 542.633 481.59C539.144 482.923 536.129 485.262 533.973 488.308C531.817 491.355 530.616 494.972 530.522 498.701L536.528 497.892C534.783 487.43 532.017 476.881 524.834 468.739C518.423 461.468 509.165 457.668 499.521 459.478C490.382 461.194 482.345 467.495 478.134 475.718C473.368 485.048 473.007 495.921 475.561 505.935L480.196 504.691C478.489 499.821 472.545 498.073 468.135 500.611C462.59 503.801 462.889 511.098 465.132 516.198L468.87 514.015C466.378 509.984 461.344 507.863 456.796 509.661C452.248 511.458 450.13 516.397 451.04 521.012L454.79 519.432C448.049 510.295 435.969 503.136 424.799 509.337C414.557 515.029 414.793 528.333 418.569 537.899C419.192 539.479 421.74 538.864 421.179 537.184H421.148Z" fill="#206A5D"/>
<path d="M506.842 352.674C509.508 349.906 511.165 346.342 512.773 342.853C513.396 341.522 514.019 340.128 513.944 338.667C520.622 342.42 527.006 346.674 533.039 351.393C532.45 351.846 531.72 352.077 530.977 352.046C524.069 352.502 517.131 352.168 510.299 351.051" fill="#1A1C3F"/>
<path d="M507.558 353.358C511.296 349.564 515.314 344.028 515.931 338.636L512.941 340.346C519.264 344.377 525.513 348.332 531.381 353.016L531.855 349.346C530.534 350.161 528.204 349.807 526.709 349.838C524.877 349.881 523.052 349.838 521.22 349.807C517.576 349.682 513.944 349.091 510.299 349.104C508.087 349.104 507.751 352.214 509.788 352.836C513.956 354.192 518.691 354.378 523.052 354.49C526.391 354.577 531.288 355.274 534.222 353.346C535.805 352.307 535.637 350.379 534.222 349.315C528.154 344.731 521.762 340.302 514.947 336.875C514.644 336.706 514.303 336.619 513.957 336.621C513.61 336.623 513.27 336.714 512.969 336.887C512.669 337.059 512.418 337.306 512.242 337.604C512.065 337.902 511.969 338.24 511.963 338.586C511.963 340.893 510.804 343.108 509.963 345.223C509.055 347.635 507.759 349.883 506.125 351.878C505.296 352.861 506.63 354.254 507.558 353.309V353.358Z" fill="#1A1C3F"/>
<path d="M373.8 381.13C374.51 381.64 374.024 384.346 374.292 385.229C374.637 386.203 375.243 387.063 376.043 387.717C378.024 389.459 380.603 389.664 382.952 390.628C388.484 392.892 384.702 401.358 389.805 404.735C394.166 407.628 400.707 403.653 404.464 407.024C407.342 409.612 409.336 420.03 415.373 416.448C416.326 415.882 416.469 414.252 415.373 413.723C413.921 413.027 412.694 412.796 411.635 411.484C410.713 410.333 410.239 408.915 409.591 407.609C408.495 405.382 407.018 403.454 404.607 402.527C400.77 401.034 392.895 404.188 390.615 400.108C389.369 397.856 389.848 394.864 388.97 392.457C388.633 391.492 388.1 390.608 387.404 389.858C386.708 389.109 385.865 388.511 384.927 388.103C382.298 386.909 378.304 387.232 376.965 384.284C376.174 382.549 376.865 380.328 374.778 379.439C374.557 379.327 374.301 379.303 374.064 379.373C373.826 379.443 373.624 379.601 373.499 379.815C373.374 380.028 373.335 380.282 373.391 380.523C373.447 380.764 373.593 380.975 373.8 381.112V381.13Z" fill="#D9D7F1"/>
<path d="M396.552 371.751C397.52 373.257 398.828 374.516 400.371 375.427C402.109 376.384 404.159 376.671 405.884 377.61C409.772 379.787 407.13 385.491 410.482 388.464C413.117 390.778 416.656 390.124 419.734 391.213C423.59 392.575 422.774 397.968 426.668 399.299C428.182 399.821 429.048 398.055 428.537 396.879C427.789 395.156 426.78 393.384 425.908 391.686C425.203 390.182 424.053 388.931 422.612 388.103C419.858 386.579 415.89 387.549 413.392 385.783C411.523 384.446 412.058 381.734 411.666 379.712C411.419 378.125 410.615 376.676 409.398 375.626C408.096 374.531 406.451 374.102 404.838 373.685C402.346 373.063 400.147 372.211 398.221 370.451C397.38 369.686 395.829 370.706 396.558 371.732L396.552 371.751Z" fill="#D9D7F1"/>
<path d="M418.033 355.784C417.946 359.516 418.656 362.57 422.276 364.181C423.964 364.927 425.839 365.158 427.409 366.165C429.135 367.272 429.745 368.367 429.633 370.382C429.543 370.959 429.53 371.544 429.596 372.124C430.449 376.192 435.284 374.456 437.277 377.038C438.723 378.904 439.252 383.345 442.592 382.331C442.891 382.241 443.154 382.059 443.345 381.811C443.535 381.563 443.642 381.262 443.651 380.95V380.602C443.725 379.296 441.638 378.649 441.084 379.905L440.947 380.222L442.193 379.513C441.371 379.513 440.529 376.403 440.181 375.781C439.686 374.777 438.936 373.919 438.006 373.293C436.829 372.559 435.39 372.765 434.225 372.18C432.518 371.34 433.272 370.047 432.935 368.392C432.437 365.954 430.443 364.119 428.275 363.024C427.119 362.514 425.923 362.098 424.699 361.78C421.584 360.772 420.731 359.018 420.5 355.834C420.382 354.254 418.058 354.223 418.008 355.834L418.033 355.784Z" fill="#D9D7F1"/>
<path d="M426.045 337.379C426.468 339.867 427.291 342.417 429.384 344.053C431.926 346.05 435.165 345.664 438.075 346.659C442.081 348.021 440.268 352.052 442.76 354.552C444.778 356.58 451.32 355.796 450.896 359.199C450.715 360.654 453.139 361.307 453.718 359.964C454.177 358.957 454.228 357.813 453.861 356.77C453.494 355.727 452.738 354.865 451.75 354.366C450.111 353.427 448.236 353.588 446.479 353.122C443.887 352.419 444.467 349.775 443.663 347.835C442.623 345.347 440.075 344.134 437.545 343.63C435.807 343.282 433.926 343.288 432.244 342.654C429.639 341.658 428.742 339.32 428.175 336.825C427.851 335.42 425.808 336.036 426.045 337.41V337.379Z" fill="#D9D7F1"/>
<path d="M433.776 317.63C435.209 318.352 435.091 320.461 435.745 321.692C436.276 322.677 437.092 323.479 438.087 323.993C440.953 325.611 444.841 325.654 447.326 327.906C449.588 329.946 449.931 333.044 452.709 334.748C454.03 335.538 455.556 335.899 456.902 336.614C459.182 337.858 459.082 339.991 458.846 342.268H462.459L462.303 341.024C462.303 340.587 462.129 340.167 461.82 339.858C461.51 339.549 461.09 339.376 460.652 339.376C460.215 339.376 459.795 339.549 459.485 339.858C459.175 340.167 459.002 340.587 459.002 341.024L458.846 342.268C458.559 344.538 462.229 344.575 462.459 342.268C462.833 338.573 462.191 335.389 458.721 333.56C457.369 332.845 455.774 332.583 454.479 331.768C452.61 330.593 452.043 328.571 450.741 326.898C448.548 324.031 445.239 323.365 441.925 322.501C440.679 322.177 439.433 321.916 438.474 321.008C437.514 320.1 437.477 319.248 437.016 318.178C436.844 317.651 436.565 317.165 436.198 316.75C435.83 316.335 435.381 316 434.879 315.764C433.633 315.205 432.474 317.008 433.764 317.668L433.776 317.63Z" fill="#D9D7F1"/>
<path d="M441.856 301.514C442.442 301.365 443.582 300.861 444.224 300.892C445.27 300.948 445.146 301.315 445.626 302.136C446.108 303.088 446.686 303.989 447.351 304.823C449.22 306.876 451.712 307.983 454.242 309.016C457.905 310.515 460.846 312.182 462.69 315.82C464.602 319.59 464.559 323.738 465.312 327.8L468.621 326.892C468.471 326.332 468.321 325.772 468.166 325.213C467.73 323.608 465.406 323.969 465.331 325.592C465.331 326.177 465.275 326.761 465.25 327.346C465.157 329.542 468.652 329.56 468.683 327.346C468.789 319.391 466.322 310.596 458.559 307.063C455.045 305.458 450.161 304.724 448.037 301.116C447.451 300.127 447.283 298.927 446.068 298.467C444.616 297.913 442.592 299.026 441.283 299.456C441.007 299.531 440.773 299.714 440.632 299.962C440.49 300.211 440.453 300.505 440.529 300.78C440.605 301.056 440.788 301.29 441.037 301.431C441.286 301.572 441.581 301.609 441.856 301.533V301.514Z" fill="#D9D7F1"/>
<path d="M454.616 291.351C461.818 294.001 466.988 300.059 469.474 307.212C471.96 314.365 473.007 323.95 469.15 330.649C468.091 332.515 470.776 333.977 471.96 332.291C474.514 328.646 474.577 323.882 474.396 319.596C474.277 314.778 473.366 310.012 471.698 305.489C468.764 297.957 463.076 291.631 455.176 289.317C453.849 288.925 453.351 290.891 454.616 291.351Z" fill="#D9D7F1"/>
<path d="M220.586 322.75C228.305 332.179 238.734 341.752 251.773 340.402C253.411 340.234 253.486 337.721 251.773 337.79C239.475 338.293 230.192 329.424 222.081 321.257C221.103 320.268 219.738 321.717 220.586 322.75Z" fill="#232323"/>
<path d="M231.133 331.526C238.386 325.107 245.311 318.327 251.879 311.211C254.994 307.853 258.003 304.369 261.131 300.986C262.289 299.742 263.735 298.622 264.769 297.254C265.928 295.742 266.171 291.656 268.027 291.071C269.703 290.511 268.974 287.849 267.292 288.421C263.479 289.709 264.04 294.131 261.573 296.694C258.146 300.252 254.975 304.034 251.655 307.697C244.634 315.447 237.207 322.793 229.738 330.089C228.816 330.991 230.186 332.322 231.133 331.489V331.526Z" fill="#232323"/>
<path d="M384.864 327.116C382.055 329.604 379.083 333.809 379.594 337.783C379.918 340.271 382.086 341.31 381.282 344.09C380.703 346.087 379.37 347.574 379.139 349.688C379.021 350.401 379.05 351.13 379.224 351.83C379.399 352.531 379.716 353.189 380.155 353.762C381.513 355.38 383.575 355.199 384.142 357.625C384.989 361.258 382.752 365.431 386.098 368.299C387.469 369.468 389.581 368.012 388.652 366.333C386.933 363.223 388.285 360.001 387.55 356.686C387.31 355.376 386.678 354.17 385.737 353.227C384.491 352.089 382.485 351.983 382.447 349.906C382.379 346.678 385.5 344.426 384.36 340.943C383.637 338.729 382.111 337.659 382.746 335.065C383.39 332.634 384.584 330.383 386.235 328.484C386.395 328.299 386.479 328.06 386.47 327.815C386.46 327.571 386.359 327.338 386.186 327.165C386.012 326.992 385.78 326.891 385.535 326.882C385.29 326.873 385.05 326.956 384.864 327.116Z" fill="#D9D7F1"/>
<path d="M400.676 334.549C398.278 336.471 396.365 342.56 398.639 345.204C399.405 346.087 400.34 345.994 400.595 347.424C400.851 348.855 400.24 350.565 400.053 351.928C399.748 354.086 399.006 356.338 400.776 357.98C401.037 358.223 401.37 358.376 401.725 358.416C402.08 358.456 402.439 358.381 402.748 358.202C403.056 358.022 403.299 357.748 403.44 357.421C403.581 357.093 403.612 356.728 403.529 356.381C402.732 352.649 405.592 348.363 403.691 344.762C403.068 343.618 401.717 343.276 401.237 342.274C400.371 340.47 401.461 337.354 402.514 335.961C403.386 334.816 401.623 333.79 400.645 334.543L400.676 334.549Z" fill="#D9D7F1"/>
<path d="M412.532 341.304V341.578C412.523 341.727 412.558 341.876 412.631 342.007C412.672 342.146 412.752 342.272 412.862 342.368C412.959 342.477 413.084 342.559 413.223 342.604C413.358 342.672 413.508 342.704 413.659 342.697L413.958 342.66C414.147 342.607 414.319 342.507 414.457 342.368L414.631 342.144C414.732 341.972 414.786 341.777 414.787 341.578V341.304C414.796 341.154 414.761 341.005 414.687 340.875C414.642 340.735 414.563 340.609 414.457 340.508C414.357 340.403 414.233 340.324 414.096 340.278C413.96 340.21 413.811 340.176 413.659 340.178L413.36 340.222C413.172 340.272 413 340.371 412.862 340.508L412.688 340.738C412.584 340.908 412.53 341.104 412.532 341.304Z" fill="#ACFDDF"/>
<path d="M190.071 250.218L190.432 250.579C190.616 250.758 190.861 250.861 191.118 250.865C191.375 250.863 191.621 250.761 191.803 250.579C191.893 250.489 191.964 250.382 192.012 250.265C192.06 250.147 192.084 250.022 192.083 249.895C192.081 249.641 191.981 249.398 191.803 249.217L191.442 248.856C191.258 248.677 191.013 248.574 190.756 248.57C190.499 248.573 190.254 248.675 190.071 248.856C189.981 248.946 189.91 249.053 189.862 249.17C189.814 249.287 189.79 249.413 189.791 249.54C189.796 249.793 189.896 250.035 190.071 250.218Z" fill="#1A1C3F"/>
<path d="M36.919 515.893C39.6353 509.549 43.2425 502.097 51.0549 501.469C54.2945 501.208 57.6026 502.439 59.1539 505.45C60.9294 508.939 60.213 513.318 59.5962 516.994C59.2473 519.09 62.0882 520.726 63.2719 518.543C64.8917 515.539 68.3805 513.256 71.8942 514.338C72.6965 514.611 73.4326 515.049 74.055 515.623C74.6773 516.198 75.1721 516.896 75.5073 517.673C75.8425 518.451 76.0107 519.289 76.0011 520.135C75.9916 520.982 75.8043 521.816 75.4516 522.586C75.2289 522.99 75.1586 523.461 75.2533 523.913C75.3479 524.365 75.6013 524.768 75.9677 525.05C76.334 525.331 76.7892 525.473 77.251 525.449C77.7127 525.425 78.1506 525.237 78.4856 524.918C82.5351 521.51 87.3073 522.163 91.6122 524.551C93.2818 525.478 95.1508 523.233 93.693 521.864C88.709 517.199 80.7097 518.132 75.7568 522.194L78.7908 524.533C79.4003 523.347 79.7649 522.05 79.8629 520.721C79.961 519.392 79.7906 518.056 79.3617 516.794C78.9329 515.531 78.2544 514.368 77.3665 513.372C76.4786 512.377 75.3995 511.569 74.1931 510.998C68.7792 508.51 62.4994 511.564 59.8018 516.515L63.4713 518.064C64.2438 513.567 65.0288 508.547 63.0352 504.249C62.1376 502.362 60.7392 500.755 58.9918 499.605C57.2444 498.455 55.2147 497.804 53.1232 497.725C43.1552 497.053 36.8879 506.433 35.0562 515.141C34.8382 516.185 36.4331 517.007 36.9252 515.918L36.919 515.893Z" fill="#22906C"/>
<path d="M495.347 528.601C494.101 524.869 496.5 520.906 500.207 519.731C504.449 518.394 508.729 520.726 511.601 523.712C511.862 523.967 512.185 524.151 512.538 524.244C512.892 524.338 513.263 524.338 513.617 524.245C513.97 524.152 514.294 523.97 514.555 523.715C514.817 523.46 515.007 523.142 515.109 522.791C516.018 518.692 518.747 513.865 523.712 515.072C528.678 516.279 530.896 521.454 533.132 525.447C534.11 527.189 536.733 526.735 537.281 524.906C538.658 520.316 541.175 515.576 545.779 513.523C550.726 511.352 555.747 513.834 556.14 519.327C556.277 521.317 559.348 522.007 559.828 519.824C561.329 512.907 554.009 507.888 547.754 508.715C539.717 509.779 535.655 516.882 532.902 523.724L537.051 523.183C534.384 517.156 529.911 510.382 522.529 510.239C516 510.109 512.05 515.837 511.066 521.703L514.567 520.776C510.362 516.646 503.733 513.816 498.026 516.646C493.453 518.916 490.662 524.495 492.65 529.366C493.31 530.983 495.927 530.373 495.347 528.625V528.601Z" fill="#22906C"/>
<path d="M586.667 492.941C574.325 494.403 568.438 507.658 574.207 518.306L574.531 515.763C572.481 517.815 571.416 520.962 573.054 523.575C574.045 525.124 576.593 524.551 576.586 522.617C576.586 521.105 576.356 519.955 577.502 518.729C577.823 518.398 578.028 517.972 578.088 517.515C578.147 517.058 578.058 516.594 577.832 516.192C572.892 507.72 577.789 497.693 586.953 495.106C588.1 494.782 587.931 492.792 586.66 492.941H586.667Z" fill="#22906C"/>
<path d="M471.879 528.296L471.81 527.954L471.661 527.599C471.572 527.426 471.439 527.28 471.275 527.176C471.185 527.086 471.073 527.021 470.951 526.99C470.773 526.886 470.571 526.832 470.365 526.834L469.966 526.89L469.611 527.039C469.285 527.246 469.043 527.561 468.926 527.929L468.864 528.271C468.789 528.539 468.789 528.823 468.864 529.092C468.931 529.354 469.069 529.593 469.262 529.782L469.574 530.025C469.814 530.163 470.087 530.236 470.365 530.236C470.581 530.249 470.797 530.202 470.988 530.1C471.179 530.039 471.351 529.93 471.486 529.782C471.679 529.591 471.819 529.353 471.891 529.092C471.966 528.823 471.966 528.539 471.891 528.271L471.879 528.296Z" fill="#22906C"/>
<path d="M506.312 85.6307L540.178 105.149L593.881 136.106L606.341 143.271C608.503 144.515 610.453 141.182 608.297 139.938L574.406 120.419L520.697 89.4622L508.237 82.2906C506.075 81.0466 504.125 84.3867 506.287 85.6307H506.312Z" fill="#1A1C3F"/>
<path d="M539.798 85.6307L597.962 119.156L606.316 123.971C608.478 125.215 610.428 121.881 608.272 120.631L550.109 87.08L541.755 82.2657C539.593 81.0217 537.643 84.3618 539.798 85.6058V85.6307Z" fill="#1A1C3F"/>
<path d="M573.291 85.6307L606.179 104.595C608.341 105.839 610.291 102.506 608.129 101.262L575.222 82.2906C573.06 81.0466 571.11 84.3867 573.272 85.6307H573.291Z" fill="#1A1C3F"/>
<path d="M482.233 354.465H542.54C543.05 354.459 543.539 354.254 543.9 353.894C544.262 353.534 544.469 353.047 544.477 352.537V176.312C544.469 175.802 544.262 175.314 543.901 174.953C543.539 174.592 543.051 174.386 542.54 174.378H482.233C481.721 174.384 481.232 174.59 480.87 174.951C480.508 175.313 480.302 175.801 480.296 176.312V352.537C480.296 355.025 484.164 355.025 484.164 352.537V176.312L482.233 178.24H542.54L540.602 176.312V352.537L542.54 350.603H482.233C479.741 350.603 479.71 354.465 482.233 354.465Z" fill="#1A1C3F"/>
<path d="M542.54 264.617H482.233C479.741 264.617 479.741 268.48 482.233 268.48H542.54C545.032 268.48 545.032 264.617 542.54 264.617Z" fill="#1A1C3F"/>
<path d="M294.268 162.784C281.534 161.309 268.102 163.685 257.374 170.981C248.284 177.17 240.235 188.267 245.356 199.55C249.343 208.333 263.66 211.368 268.214 201.298C270.276 196.745 269.136 191.172 265.903 187.452C262.165 183.142 256.059 181.319 250.49 181.699C236.647 182.644 226.448 195.159 229.121 208.874C229.625 211.467 233.569 210.36 233.089 207.779C231.22 197.939 237.606 188.615 247.213 186.152C251.605 185.02 256.62 185.35 260.526 187.8C264.333 190.195 266.756 195.078 265.037 199.506C263.386 203.724 258.321 204.887 254.346 203.593C249.935 202.15 247.493 197.653 247.169 193.237C246.44 183.515 254.645 175.889 262.377 171.467C272.052 165.937 283.235 164.003 294.268 164.992C295.695 165.122 295.657 162.951 294.268 162.79V162.784Z" fill="#22906C"/>
<path d="M289.358 206.373C286.636 210.871 283.808 215.33 281.259 219.946C281.132 220.226 281.114 220.544 281.208 220.837C281.302 221.13 281.502 221.378 281.769 221.533C282.035 221.688 282.35 221.739 282.652 221.675C282.954 221.612 283.221 221.439 283.403 221.19C286.156 216.705 288.611 212.034 291.165 207.431C291.306 207.188 291.345 206.9 291.274 206.629C291.202 206.357 291.025 206.126 290.782 205.985C290.539 205.844 290.25 205.805 289.978 205.876C289.707 205.948 289.475 206.125 289.334 206.367L289.358 206.373Z" fill="#22906C"/>
<path d="M307.475 212.55C302.974 215.785 298.714 219.342 294.729 223.192C293.67 224.256 295.115 226.302 296.398 225.351C300.765 221.919 304.877 218.178 308.703 214.155C309.469 213.365 308.429 211.859 307.457 212.569L307.475 212.55Z" fill="#22906C"/>
<path d="M305.793 236.901C307.5 235.708 309.324 234.693 311.238 233.872C311.429 233.809 311.605 233.707 311.755 233.573C311.904 233.439 312.025 233.275 312.108 233.092C312.191 232.909 312.235 232.711 312.238 232.511C312.241 232.31 312.202 232.111 312.124 231.925C312.046 231.74 311.931 231.573 311.785 231.435C311.639 231.297 311.466 231.19 311.277 231.122C311.088 231.053 310.887 231.025 310.686 231.038C310.485 231.051 310.289 231.105 310.111 231.197C308.094 232.094 306.175 233.197 304.385 234.488C302.946 235.527 304.298 237.934 305.793 236.901Z" fill="#22906C"/>
<path d="M295.551 417.872C296.835 425.784 305.75 432.11 312.84 434.604C319.456 436.93 328.047 435.543 331.741 428.975C333.043 426.661 333.741 423.426 330.931 421.946C328.284 420.553 325.2 421.847 323.399 423.949C318.49 429.671 322.047 437.888 327.524 441.62C335.068 446.751 347.154 448.076 355.141 443.442C357.11 442.304 355.359 439.331 353.366 440.407C347.073 443.803 338.956 442.895 332.514 440.258C329.324 438.958 326.19 436.75 325 433.416C324.454 431.908 324.336 430.278 324.658 428.707C324.969 427.32 326.253 424.49 328.097 424.664C330.72 424.919 329.1 427.706 328.097 428.937C327.019 430.192 325.665 431.18 324.141 431.823C320.938 433.153 317.358 433.263 314.079 432.134C307.625 430.15 298.978 424.353 297.489 417.368C297.221 416.124 295.377 416.665 295.576 417.897L295.551 417.872Z" fill="#22906C"/>
<path d="M443.553 253.569C441.078 253.171 438.688 252.361 436.482 251.174C435.438 250.614 434.451 249.953 433.535 249.202C433.311 249.016 430.476 245.694 431.043 245.75C432.912 245.943 433.305 242.889 431.485 242.485C427.23 241.552 424.433 239.375 421.144 236.681C418.838 234.815 416.54 233.571 413.524 234.225L414.44 237.677C420.159 236.37 421.461 228.906 416.932 225.429C405.914 216.982 408.065 235.116 400.277 225.786C397.686 223.941 394.814 227.246 394.359 225.429C393.985 223.968 396.915 216.703 397.831 216.05C399.955 214.594 401.986 212.996 404.173 211.634C412.895 206.21 424.938 204.294 433.516 211.012C435.329 212.436 436.631 214.196 438.102 215.95C439.587 217.657 441.358 219.095 443.335 220.198C447.102 222.488 449.83 226.151 450.942 230.412C453.814 240.563 447.152 253.328 442.641 262.173C437.657 247.556 436.1 264.039 444.199 266.527C445.862 262.963 451.558 254.701 453.004 251.031C457.471 239.586 457.246 224.322 445.634 217.169C443.765 216.012 442.17 215.011 440.724 213.307C439.699 211.98 438.601 210.712 437.435 209.506C435.016 207.318 432.19 205.625 429.118 204.524C422.265 201.918 414.87 202.335 408.129 205.009C403.905 206.682 400.273 209.189 396.61 211.851C394.168 213.618 393.231 217.294 391.867 220.198C390.415 223.308 390.602 226.014 392.801 227.743C396.539 229.207 397.474 226.408 403.594 232.962C403.835 233.089 404.102 233.163 404.375 233.176C404.648 233.189 404.921 233.143 405.174 233.04C405.427 232.936 405.654 232.779 405.84 232.579C406.025 232.378 406.165 232.14 406.248 231.88C407.381 228.875 410.447 226.282 413.761 227.743C416.801 229.068 417.032 233.466 413.506 234.274C411.269 234.791 412.222 238.174 414.453 237.702C417.568 237.042 420.334 240.899 422.601 242.503C424.989 244.159 427.715 245.266 430.582 245.744L431.024 242.479C430.256 242.402 429.486 242.608 428.858 243.056C428.23 243.505 427.786 244.166 427.61 244.917C427.081 246.963 428.551 248.742 429.928 250.079C433.515 253.54 438.297 255.491 443.285 255.528C444.394 255.528 444.699 253.73 443.553 253.544V253.569Z" fill="#1A1C3F"/>
</svg>
