<svg width="230" height="166" viewBox="0 0 230 166" fill="none" xmlns="http://www.w3.org/2000/svg">
<path fill-rule="evenodd" clip-rule="evenodd" d="M115.048 50.826L12.0007 110.32C10.0875 111.425 7.64114 110.77 6.53657 108.856L0.536566 98.4641C-0.568003 96.5509 0.0874973 94.1045 2.00067 92.9999L111.986 29.4999C112.361 29.2831 112.757 29.1341 113.16 29.0492C114.369 28.3127 115.932 28.2423 117.244 28.9999L227.229 92.4999C229.143 93.6045 229.798 96.0509 228.694 97.9641L222.694 108.356C221.589 110.27 219.143 110.925 217.229 109.82L115.048 50.826Z" fill="#206A5D"/>
<path fill-rule="evenodd" clip-rule="evenodd" d="M199.236 46.4667C214.538 44.1743 226 34.7624 226 23.5C226 10.5213 210.778 0 192 0C173.222 0 158 10.5213 158 23.5C158 34.7624 169.462 44.1743 184.764 46.4667L192 59L199.236 46.4667Z" fill="#206A5D"/>
<circle cx="180" cy="26" r="3" fill="white"/>
<circle cx="192" cy="26" r="3" fill="white"/>
<circle cx="204" cy="26" r="3" fill="white"/>
<path d="M46.668 99.032H39.024V105.012C39.024 107.161 39.0413 108.981 39.076 110.472C39.1453 111.928 39.284 113.644 39.492 115.62C39.7 117.596 40.0293 119.347 40.48 120.872C40.9307 122.363 41.52 123.923 42.248 125.552C42.976 127.147 43.9293 128.637 45.108 130.024C46.2867 131.376 47.6733 132.607 49.268 133.716C49.9267 134.201 50.048 134.739 49.632 135.328L48.8 136.576C48.4533 137.061 47.9507 137.269 47.292 137.2C44.4147 136.68 41.572 135.623 38.764 134.028C35.9907 132.433 33.772 130.284 32.108 127.58C28.988 132.849 23.736 136.108 16.352 137.356C15.7627 137.46 15.2947 137.269 14.948 136.784L14.012 135.484C13.596 134.895 13.7347 134.392 14.428 133.976C16.092 132.901 17.548 131.688 18.796 130.336C20.0787 128.984 21.1013 127.493 21.864 125.864C22.6267 124.2 23.2333 122.623 23.684 121.132C24.1693 119.607 24.516 117.821 24.724 115.776C24.932 113.696 25.0533 111.945 25.088 110.524C25.1573 109.068 25.192 107.231 25.192 105.012V99.032H18.432C17.7733 99.032 17.3227 98.7547 17.08 98.2L15.936 95.6C15.5893 94.768 15.8147 94.352 16.612 94.352H46.668C47.1187 94.352 47.4133 94.4213 47.552 94.56C47.7253 94.6987 47.812 94.9413 47.812 95.288V97.94C47.812 98.3907 47.7253 98.6853 47.552 98.824C47.3787 98.9627 47.084 99.032 46.668 99.032ZM66.324 116.452H63.204V137.2C63.204 137.893 63.0653 138.413 62.788 138.76C62.5453 139.141 62.0253 139.332 61.228 139.332H52.44C51.6427 139.332 51.1053 139.141 50.828 138.76C50.5853 138.413 50.464 137.893 50.464 137.2V95.34C50.464 94.6813 50.5853 94.2133 50.828 93.936C51.1053 93.624 51.6427 93.468 52.44 93.468H61.228C62.0253 93.468 62.5453 93.624 62.788 93.936C63.0653 94.248 63.204 94.7333 63.204 95.392V111.252H66.324C67.156 111.252 67.572 111.651 67.572 112.448V115.152C67.572 116.019 67.156 116.452 66.324 116.452ZM106.26 93.468H115.048C115.845 93.468 116.365 93.624 116.608 93.936C116.885 94.248 117.024 94.7333 117.024 95.392V137.2C117.024 137.893 116.885 138.413 116.608 138.76C116.365 139.141 115.845 139.332 115.048 139.332H106.26C105.463 139.332 104.925 139.141 104.648 138.76C104.405 138.413 104.284 137.893 104.284 137.2V124.304C101.441 125.587 97.212 126.367 91.596 126.644L91.336 136.68C91.2667 138.101 90.556 138.812 89.204 138.812H79.896C79.0987 138.812 78.5787 138.621 78.336 138.24C78.128 137.893 78.0413 137.373 78.076 136.68L78.544 126.748H69.704C69.0453 126.748 68.5947 126.471 68.352 125.916L67.208 123.316C66.8613 122.484 67.0867 122.068 67.884 122.068H87.904C94.9413 122.068 100.401 121.201 104.284 119.468V95.34C104.284 94.6813 104.405 94.2133 104.648 93.936C104.925 93.624 105.463 93.468 106.26 93.468ZM99.968 104.232H91.752C91.752 105.341 91.8213 106.277 91.96 107.04C92.1333 107.768 92.4973 108.617 93.052 109.588C93.6413 110.524 94.5947 111.391 95.912 112.188C97.264 112.951 99.0147 113.661 101.164 114.32C101.892 114.528 102.083 115.083 101.736 115.984L101.268 117.44C101.025 118.064 100.419 118.376 99.448 118.376C98.1307 118.376 96.7613 118.307 95.34 118.168C93.9187 118.029 92.1333 117.648 89.984 117.024C87.8693 116.365 86.1707 115.499 84.888 114.424C81.2827 117.371 76.0653 118.948 69.236 119.156C68.5773 119.156 68.1267 118.844 67.884 118.22L67.364 116.868C66.9827 115.967 67.1733 115.429 67.936 115.256C74.5227 113.627 77.8507 109.952 77.92 104.232H70.9C70.2413 104.232 69.7907 103.955 69.548 103.4L68.404 100.8C68.0573 99.968 68.2827 99.552 69.08 99.552H99.968C100.419 99.552 100.713 99.6213 100.852 99.76C101.025 99.8987 101.112 100.141 101.112 100.488V103.14C101.112 103.591 101.025 103.885 100.852 104.024C100.679 104.163 100.384 104.232 99.968 104.232ZM94.404 97.732H76.672C76.0133 97.732 75.5627 97.4547 75.32 96.9L74.176 94.3C73.8293 93.468 74.0547 93.052 74.852 93.052H94.404C94.8547 93.052 95.1493 93.1213 95.288 93.26C95.4613 93.3987 95.548 93.6413 95.548 93.988V96.64C95.548 97.0907 95.4613 97.3853 95.288 97.524C95.1147 97.6627 94.82 97.732 94.404 97.732ZM211.218 122.484H164.626C163.968 122.484 163.517 122.207 163.274 121.652L162.13 119.052C161.784 118.22 162.009 117.804 162.806 117.804H180.486V113.904H167.382C166.585 113.904 166.048 113.731 165.77 113.384C165.528 113.003 165.406 112.465 165.406 111.772V97.108L164.366 94.768C164.02 93.9013 164.228 93.468 164.99 93.468H207.994C208.445 93.468 208.74 93.5373 208.878 93.676C209.052 93.78 209.138 94.0053 209.138 94.352V97.056C209.138 97.5067 209.052 97.8013 208.878 97.94C208.705 98.0787 208.41 98.148 207.994 98.148H180.798V101.164H207.994C208.445 101.164 208.74 101.233 208.878 101.372C209.052 101.476 209.138 101.701 209.138 102.048V104.804C209.138 105.116 209.086 105.359 208.982 105.532C208.878 105.671 208.757 105.757 208.618 105.792C208.48 105.827 208.272 105.844 207.994 105.844H180.798V109.224H208.306C208.757 109.224 209.052 109.293 209.19 109.432C209.364 109.536 209.45 109.761 209.45 110.108V112.916C209.45 113.367 209.364 113.644 209.19 113.748C209.017 113.852 208.722 113.904 208.306 113.904H194.266V117.804H211.218C211.669 117.804 211.964 117.873 212.102 118.012C212.276 118.151 212.362 118.393 212.362 118.74V121.392C212.362 121.843 212.276 122.137 212.102 122.276C211.929 122.415 211.634 122.484 211.218 122.484ZM194.578 130.336H167.07C166.412 130.336 165.961 130.059 165.718 129.504L164.574 126.904C164.228 126.072 164.453 125.656 165.25 125.656H207.162C207.96 125.656 208.48 125.812 208.722 126.124C209 126.436 209.138 126.921 209.138 127.58V138.24C209.138 138.933 209 139.453 208.722 139.8C208.48 140.181 207.96 140.372 207.162 140.372H196.554C195.757 140.372 195.22 140.181 194.942 139.8C194.7 139.453 194.578 138.933 194.578 138.24V130.336Z" fill="black"/>
<path d="M131.584 93.988C132.728 93.988 133.421 94.2653 133.664 94.82L146.3 125.552V96.12C146.3 95.4267 146.421 94.9067 146.664 94.56C146.941 94.1787 147.479 93.988 148.276 93.988H157.064C157.861 93.988 158.381 94.1787 158.624 94.56C158.901 94.9067 159.04 95.4267 159.04 96.12V136.42C159.04 137.079 158.901 137.547 158.624 137.824C158.381 138.136 157.861 138.292 157.064 138.292H148.796C147.652 138.292 146.959 138.015 146.716 137.46L134.08 106.728V136.16C134.08 136.853 133.941 137.373 133.664 137.72C133.421 138.101 132.901 138.292 132.104 138.292H123.316C122.519 138.292 121.981 138.101 121.704 137.72C121.461 137.373 121.34 136.853 121.34 136.16V95.86C121.34 95.2013 121.461 94.7333 121.704 94.456C121.981 94.144 122.519 93.988 123.316 93.988H131.584Z" fill="#FFC090"/>
<path d="M30.1142 150.496C30.3062 150.528 30.4262 150.68 30.4742 150.952C30.5222 151.208 30.5702 151.976 30.6182 153.256C30.6982 155.032 30.7782 155.96 30.8582 156.04C30.9222 156.12 31.4742 156.056 32.5142 155.848C32.9302 155.768 33.2582 155.712 33.4982 155.68C33.7542 155.648 33.9462 155.656 34.0742 155.704C34.2182 155.736 34.3062 155.8 34.3382 155.896C34.3862 155.976 34.3942 156.096 34.3622 156.256C34.3302 156.384 34.2102 156.488 34.0022 156.568C33.8102 156.648 33.4422 156.736 32.8982 156.832C32.8182 156.848 32.7222 156.864 32.6102 156.88C32.2102 156.944 31.9302 156.992 31.7702 157.024C31.6102 157.04 31.4342 157.096 31.2422 157.192C31.0502 157.288 30.9302 157.368 30.8822 157.432C30.8342 157.48 30.7702 157.616 30.6902 157.84C30.6262 158.048 30.5942 158.24 30.5942 158.416C30.5942 158.576 30.5942 158.872 30.5942 159.304C30.5782 159.448 30.5702 159.56 30.5702 159.64C30.5542 160.568 30.5222 161.184 30.4742 161.488C30.4262 161.776 30.3382 161.968 30.2102 162.064C30.0022 162.192 29.8342 162.192 29.7062 162.064C29.6102 161.92 29.5862 159.96 29.6342 156.184L29.7062 150.448L30.1142 150.496ZM21.9782 153.112C22.8102 152.888 23.3062 152.784 23.4662 152.8C23.7062 152.832 23.8102 153.024 23.7782 153.376C23.7622 153.712 23.5942 154.288 23.2742 155.104C23.2582 155.152 23.2342 155.232 23.2022 155.344C23.0742 155.664 22.9862 155.888 22.9382 156.016C22.8902 156.128 22.8582 156.28 22.8422 156.472C22.8422 156.664 22.8502 156.792 22.8662 156.856C22.8982 156.904 22.9782 157.008 23.1062 157.168C23.2502 157.328 23.3862 157.456 23.5142 157.552C23.6422 157.648 23.8742 157.816 24.2102 158.056C24.3062 158.136 24.3862 158.2 24.4502 158.248C25.7782 159.224 26.0662 159.712 25.3142 159.712C24.8822 159.712 24.2182 159.352 23.3222 158.632C22.7782 158.184 22.4262 158 22.2662 158.08C22.1062 158.128 21.9142 158.472 21.6902 159.112C21.5302 159.608 21.3542 159.968 21.1622 160.192C20.9702 160.4 20.7942 160.456 20.6342 160.36C20.4582 160.248 20.4022 160.032 20.4662 159.712C20.5462 159.392 20.7622 158.88 21.1142 158.176C21.4502 157.488 21.7782 156.664 22.0982 155.704C22.4182 154.728 22.5462 154.2 22.4822 154.12C22.4342 154.072 21.8822 154.176 20.8262 154.432C19.2582 154.848 18.4742 154.848 18.4742 154.432C18.4742 154.304 18.7222 154.144 19.2182 153.952C19.7142 153.76 20.6342 153.48 21.9782 153.112ZM49.6956 148.84C49.7596 148.712 49.8876 148.64 50.0796 148.624C50.2716 148.592 50.7036 148.6 51.3756 148.648C52.3676 148.744 53.0956 148.792 53.5596 148.792C53.8476 148.792 54.0156 148.816 54.0636 148.864C54.1276 148.912 54.1436 149.056 54.1116 149.296C54.1116 149.312 54.1116 149.344 54.1116 149.392C54.0956 149.616 53.9916 149.744 53.7996 149.776C53.6076 149.792 52.9356 149.76 51.7836 149.68C51.5756 149.664 51.4236 149.648 51.3276 149.632C50.5276 149.6 50.0236 149.536 49.8156 149.44C49.6236 149.328 49.5836 149.128 49.6956 148.84ZM59.1276 151.936C59.1916 151.68 59.3036 151.52 59.4636 151.456C59.6396 151.392 59.7916 151.456 59.9196 151.648C59.9836 151.744 60.0476 152.816 60.1116 154.864C60.1916 156.896 60.2396 159.016 60.2556 161.224C60.2556 161.928 60.2396 162.344 60.2076 162.472C60.1756 162.584 60.0396 162.64 59.7996 162.64C59.5756 162.64 59.4396 162.568 59.3916 162.424C59.3596 162.264 59.3436 161.744 59.3436 160.864C59.3436 159.632 59.2876 157.928 59.1756 155.752C59.0476 153.512 59.0316 152.24 59.1276 151.936ZM51.3036 152.176C51.9276 152.064 52.3916 151.984 52.6956 151.936C52.9996 151.888 53.2476 151.872 53.4396 151.888C53.6316 151.904 53.7436 151.944 53.7756 152.008C53.8236 152.072 53.8396 152.184 53.8236 152.344C53.7916 152.648 53.6476 152.976 53.3916 153.328C53.1356 153.696 53.0396 153.928 53.1036 154.024C53.1836 154.152 53.5916 154.312 54.3276 154.504C55.3516 154.792 55.8396 155.088 55.7916 155.392C55.7596 155.488 55.7116 155.576 55.6476 155.656C55.5356 155.784 55.3756 155.84 55.1676 155.824C54.9596 155.792 54.5596 155.672 53.9676 155.464C53.0556 155.144 52.5116 154.984 52.3356 154.984C52.1916 154.984 51.9916 155.224 51.7356 155.704C51.4796 156.2 51.1676 156.616 50.7996 156.952C50.4316 157.288 50.1516 157.416 49.9596 157.336C49.7196 157.256 49.6156 157.128 49.6476 156.952C49.6956 156.776 49.8716 156.512 50.1756 156.16C50.5756 155.696 51.0236 155.096 51.5196 154.36C52.0156 153.624 52.2396 153.208 52.1916 153.112C52.1116 153.016 51.6796 153.056 50.8956 153.232C50.1276 153.392 49.5996 153.472 49.3116 153.472C49.0396 153.472 48.8716 153.384 48.8076 153.208C48.7276 153 48.8636 152.824 49.2156 152.68C49.5836 152.536 50.2796 152.368 51.3036 152.176ZM54.2556 158.512C55.3756 158.24 56.0636 158.096 56.3196 158.08C56.5916 158.048 56.7996 158.104 56.9436 158.248C57.1356 158.424 57.1436 158.616 56.9676 158.824C56.7916 159.032 56.5356 159.136 56.1996 159.136C55.8796 159.136 55.4796 159.224 54.9996 159.4L54.3516 159.688V161.584C54.3516 162.64 54.3116 163.312 54.2316 163.6C54.1676 163.888 54.0156 164.032 53.7756 164.032C53.5196 164.032 53.3676 163.872 53.3196 163.552C53.2716 163.248 53.2956 162.624 53.3916 161.68C53.5036 160.544 53.5116 159.936 53.4156 159.856C53.3196 159.76 52.6876 159.88 51.5196 160.216C50.8156 160.408 50.3436 160.528 50.1036 160.576C49.8636 160.608 49.7036 160.568 49.6236 160.456C49.5276 160.296 49.5036 160.136 49.5516 159.976C49.6156 159.864 50.0796 159.672 50.9436 159.4C51.8076 159.112 52.9116 158.816 54.2556 158.512ZM80.9993 149.056C81.0633 148.896 81.1353 148.816 81.2153 148.816C81.2953 148.8 81.4313 148.848 81.6233 148.96C81.8153 149.072 81.9273 149.584 81.9593 150.496C82.0233 151.408 82.1033 151.928 82.1993 152.056C82.2793 152.136 82.7273 152.032 83.5433 151.744L84.7433 151.312L84.7913 150.136C84.8393 149.128 85.0393 148.68 85.3913 148.792C85.4713 148.808 85.5673 148.872 85.6793 148.984C85.8873 149.192 85.9433 150.568 85.8473 153.112C85.7673 155.64 85.6153 157.04 85.3913 157.312C85.1833 157.568 84.9833 157.664 84.7913 157.6C84.6793 157.552 84.6153 157.44 84.5993 157.264C84.5833 157.088 84.6073 156.736 84.6713 156.208C84.7673 155.44 84.8153 154.6 84.8153 153.688L84.8393 152.488L84.0713 152.632C83.5593 152.712 83.1113 152.848 82.7273 153.04L82.1513 153.352L82.2713 154.912C82.3033 155.648 82.3033 156.112 82.2713 156.304C82.2553 156.496 82.1513 156.632 81.9593 156.712C81.7033 156.856 81.5273 156.872 81.4313 156.76C81.3833 156.696 81.3113 156.056 81.2153 154.84C81.1193 153.608 81.0473 152.368 80.9993 151.12C80.9513 149.872 80.9513 149.184 80.9993 149.056ZM75.9113 152.512C76.7753 150.8 77.3273 149.928 77.5673 149.896C77.7753 149.896 77.8633 150.008 77.8313 150.232C77.7993 150.44 77.6553 150.864 77.3993 151.504C77.1273 152.144 77.0313 152.584 77.1113 152.824C77.1913 153.048 77.5673 153.488 78.2393 154.144C78.8633 154.768 79.1753 155.216 79.1753 155.488C79.1753 155.792 79.1113 155.936 78.9833 155.92C78.7913 155.872 78.3673 155.528 77.7113 154.888C76.9593 154.2 76.5273 153.856 76.4153 153.856C76.3033 153.856 76.0873 154.184 75.7673 154.84C75.4633 155.528 75.1753 155.896 74.9033 155.944C74.7433 155.976 74.6633 155.832 74.6633 155.512C74.6633 155.208 75.0793 154.208 75.9113 152.512ZM80.3753 159.784C80.9353 159.512 81.4073 159.368 81.7913 159.352C82.1913 159.32 82.5913 159.408 82.9913 159.616C83.3273 159.792 83.5593 160.048 83.6873 160.384C83.8313 160.72 83.9033 161.192 83.9033 161.8C83.9033 162.568 83.7273 163.192 83.3753 163.672C83.0393 164.152 82.5593 164.44 81.9353 164.536C81.4233 164.616 80.8873 164.56 80.3273 164.368C79.7673 164.192 79.3513 163.936 79.0793 163.6C78.8713 163.36 78.7433 163.152 78.6953 162.976C78.6473 162.8 78.6393 162.52 78.6713 162.136C78.7353 161.544 78.8873 161.072 79.1273 160.72C79.3833 160.368 79.7993 160.056 80.3753 159.784ZM82.5593 160.6C82.0313 160.216 81.4633 160.168 80.8553 160.456C80.2633 160.744 79.8793 161.24 79.7033 161.944C79.6233 162.264 79.6393 162.52 79.7513 162.712C79.8633 162.904 80.1193 163.096 80.5193 163.288C81.9753 164.024 82.7753 163.56 82.9193 161.896C82.9673 161.464 82.9673 161.176 82.9193 161.032C82.8873 160.872 82.7673 160.728 82.5593 160.6ZM103.165 147.472C103.677 147.376 104.525 147.32 105.709 147.304C106.573 147.288 107.077 147.296 107.221 147.328C107.365 147.36 107.421 147.48 107.389 147.688C107.373 147.896 107.261 148.024 107.053 148.072C106.861 148.12 106.237 148.168 105.181 148.216L103.021 148.312L102.853 149.296C102.821 149.552 102.797 149.752 102.781 149.896C102.765 150.024 102.765 150.16 102.781 150.304C102.813 150.448 102.861 150.544 102.925 150.592C103.005 150.64 103.109 150.704 103.237 150.784C103.381 150.864 103.557 150.904 103.765 150.904C103.989 150.888 104.245 150.896 104.533 150.928C104.837 150.944 105.189 150.936 105.589 150.904C106.197 150.888 106.661 150.888 106.981 150.904C107.301 150.92 107.565 150.952 107.773 151C107.997 151.032 108.109 151.096 108.109 151.192C108.109 151.288 108.101 151.408 108.085 151.552C108.037 151.68 107.157 151.8 105.445 151.912C103.749 152.008 102.725 152 102.373 151.888C102.181 151.84 102.061 151.72 102.013 151.528C101.981 151.32 101.965 150.792 101.965 149.944C101.965 148.728 102.021 148.032 102.133 147.856C102.261 147.664 102.605 147.536 103.165 147.472ZM108.781 153.76C108.877 153.648 109.005 153.648 109.165 153.76C109.341 153.872 109.445 154.016 109.477 154.192C109.509 154.416 109.461 154.56 109.333 154.624C109.109 154.72 108.101 154.872 106.309 155.08C104.341 155.336 102.957 155.568 102.157 155.776C101.421 155.952 100.925 156.016 100.669 155.968C100.413 155.904 100.285 155.704 100.285 155.368C100.285 155.176 100.541 155.008 101.053 154.864C101.581 154.72 102.461 154.576 103.693 154.432C106.957 154.08 108.653 153.856 108.781 153.76ZM104.437 157.744C105.205 157.584 105.861 157.504 106.405 157.504L107.149 157.552L107.197 159.184L107.269 160.864L106.669 161.2C106.317 161.44 105.741 161.632 104.941 161.776C104.205 161.904 103.685 162.072 103.381 162.28C103.077 162.472 102.925 162.744 102.925 163.096C102.925 163.496 103.069 163.744 103.357 163.84C103.645 163.936 104.221 163.928 105.085 163.816C106.285 163.672 106.989 163.6 107.197 163.6C107.421 163.616 107.549 163.744 107.581 163.984C107.629 164.272 107.493 164.464 107.173 164.56C106.853 164.672 106.157 164.776 105.085 164.872C104.989 164.872 104.853 164.88 104.677 164.896C103.477 164.992 102.765 165.032 102.541 165.016C102.317 165 102.149 164.872 102.037 164.632C102.021 164.6 102.013 164.576 102.013 164.56C101.869 164.256 101.829 163.784 101.893 163.144C101.957 162.504 102.093 162.08 102.301 161.872C102.477 161.696 103.085 161.448 104.125 161.128C105.085 160.824 105.685 160.56 105.925 160.336C106.181 160.112 106.269 159.784 106.189 159.352C106.109 158.888 106.013 158.624 105.901 158.56C105.789 158.496 105.365 158.536 104.629 158.68C103.893 158.808 103.309 158.952 102.877 159.112C102.109 159.4 101.661 159.376 101.533 159.04C101.485 158.928 101.581 158.792 101.821 158.632C102.061 158.472 102.413 158.312 102.877 158.152C103.341 157.992 103.861 157.856 104.437 157.744ZM133.684 150.736C133.988 150.368 134.188 150.552 134.284 151.288C134.316 151.48 134.34 151.704 134.356 151.96C134.42 154.296 134.452 156.608 134.452 158.896C134.468 161.184 134.436 162.408 134.356 162.568C134.26 162.776 134.092 162.888 133.852 162.904C133.628 162.92 133.476 162.832 133.396 162.64C133.316 162.448 133.348 161.832 133.492 160.792C133.62 159.704 133.644 158.376 133.564 156.808C133.372 153.096 133.412 151.072 133.684 150.736ZM126.292 151.888C126.676 151.616 127.076 151.472 127.492 151.456C127.924 151.424 128.284 151.528 128.572 151.768C129.004 152.12 129.124 152.768 128.932 153.712C128.74 154.64 128.372 155.256 127.828 155.56C127.62 155.704 127.276 155.776 126.796 155.776C126.524 155.776 126.244 155.696 125.956 155.536C125.668 155.36 125.428 155.152 125.236 154.912C125.06 154.672 124.972 154.432 124.972 154.192C124.988 153.84 125.124 153.432 125.38 152.968C125.636 152.504 125.94 152.144 126.292 151.888ZM127.996 152.464C127.772 152.176 127.508 152.104 127.204 152.248C126.9 152.392 126.612 152.728 126.34 153.256C126.1 153.704 126.044 154.08 126.172 154.384C126.316 154.672 126.612 154.816 127.06 154.816C127.3 154.816 127.532 154.656 127.756 154.336C127.98 154.016 128.116 153.688 128.164 153.352C128.212 153 128.156 152.704 127.996 152.464ZM130.636 158.392C130.972 158.184 131.252 158.256 131.476 158.608C131.604 158.816 131.58 159.024 131.404 159.232C131.244 159.424 131.004 159.52 130.684 159.52C130.364 159.52 129.244 159.712 127.324 160.096C125.372 160.512 124.308 160.68 124.132 160.6C123.94 160.504 123.852 160.336 123.868 160.096C123.884 159.856 123.988 159.704 124.18 159.64C124.388 159.544 124.908 159.44 125.74 159.328C126.764 159.184 127.796 159.016 128.836 158.824C129.876 158.616 130.476 158.472 130.636 158.392ZM157.256 150.016C157.32 149.744 157.44 149.592 157.616 149.56C157.808 149.528 157.968 149.632 158.096 149.872C158.208 150.08 158.288 152.216 158.336 156.28C158.368 159.976 158.32 162.032 158.192 162.448C158.112 162.704 157.936 162.776 157.664 162.664C157.552 162.616 157.472 162.344 157.424 161.848C157.392 161.352 157.376 160.216 157.376 158.44C157.376 155.832 157.336 153.824 157.256 152.416C157.16 151.136 157.16 150.336 157.256 150.016ZM149.768 153.784C150.28 153.128 150.64 152.968 150.848 153.304C150.928 153.432 151.12 153.496 151.424 153.496C151.808 153.496 152.104 153.688 152.312 154.072C152.536 154.456 152.648 154.984 152.648 155.656C152.648 156.168 152.616 156.544 152.552 156.784C152.488 157.008 152.336 157.28 152.096 157.6C151.824 157.968 151.608 158.192 151.448 158.272C151.304 158.352 151.04 158.392 150.656 158.392C150.08 158.392 149.648 158.288 149.36 158.08C149.216 158 149.112 157.912 149.048 157.816C148.984 157.72 148.936 157.6 148.904 157.456C148.888 157.296 148.88 157.048 148.88 156.712C148.88 156.04 148.944 155.488 149.072 155.056C149.2 154.624 149.432 154.2 149.768 153.784ZM151.52 154.576C151.248 154.352 150.984 154.24 150.728 154.24C150.488 154.24 150.272 154.456 150.08 154.888C149.904 155.32 149.816 155.816 149.816 156.376C149.816 156.728 149.84 156.968 149.888 157.096C149.952 157.224 150.088 157.328 150.296 157.408C150.504 157.504 150.656 157.536 150.752 157.504C150.864 157.472 151.024 157.352 151.232 157.144C151.552 156.792 151.752 156.336 151.832 155.776C151.88 155.392 151.888 155.136 151.856 155.008C151.824 154.864 151.712 154.72 151.52 154.576ZM181.121 149.896C181.313 149.592 181.513 149.6 181.721 149.92C181.897 150.224 181.969 150.616 181.937 151.096C181.905 151.544 181.905 152.12 181.937 152.824L181.961 153.736L182.873 153.616C183.353 153.568 183.921 153.488 184.577 153.376C184.977 153.312 185.209 153.296 185.273 153.328C185.353 153.36 185.369 153.512 185.321 153.784C185.305 153.912 185.289 154.008 185.273 154.072C185.257 154.12 185.225 154.168 185.177 154.216C185.145 154.264 185.065 154.304 184.937 154.336C184.809 154.368 184.673 154.4 184.529 154.432C184.401 154.448 184.169 154.48 183.833 154.528C182.873 154.672 182.329 154.784 182.201 154.864C182.041 154.976 181.961 155.6 181.961 156.736V158.44L182.585 158.32C183.129 158.224 183.657 158.144 184.169 158.08C184.665 158.016 184.953 158.008 185.033 158.056C185.129 158.088 185.177 158.216 185.177 158.44C185.177 158.552 185.169 158.64 185.153 158.704C185.137 158.768 185.105 158.824 185.057 158.872C185.009 158.92 184.937 158.96 184.841 158.992C184.761 159.008 184.641 159.024 184.481 159.04C184.033 159.104 183.609 159.176 183.209 159.256C182.841 159.304 182.505 159.432 182.201 159.64C182.009 159.752 181.889 159.872 181.841 160C181.809 160.128 181.817 160.4 181.865 160.816C181.929 161.328 181.889 161.728 181.745 162.016C181.617 162.304 181.417 162.4 181.145 162.304C180.985 162.24 180.889 161.896 180.857 161.272C180.841 160.632 180.857 158.92 180.905 156.136C180.969 152.104 181.041 150.024 181.121 149.896ZM173.681 154.072C174.065 153.528 174.393 153.264 174.665 153.28C174.761 153.296 174.809 153.368 174.809 153.496C174.809 153.608 175.001 153.76 175.385 153.952C175.881 154.208 176.217 154.64 176.393 155.248C176.569 155.84 176.553 156.448 176.345 157.072C176.153 157.696 175.809 158.176 175.313 158.512C175.025 158.688 174.641 158.752 174.161 158.704C173.697 158.64 173.329 158.488 173.057 158.248C172.753 157.976 172.665 157.368 172.793 156.424C172.937 155.464 173.233 154.68 173.681 154.072ZM175.217 154.816C174.753 154.576 174.417 154.576 174.209 154.816C174.017 155.04 173.865 155.6 173.753 156.496C173.689 156.944 173.673 157.224 173.705 157.336C173.753 157.448 173.897 157.56 174.137 157.672C174.377 157.784 174.545 157.824 174.641 157.792C174.753 157.76 174.913 157.632 175.121 157.408C175.409 157.056 175.561 156.576 175.577 155.968C175.609 155.344 175.489 154.96 175.217 154.816ZM209.277 149.752C209.341 149.608 209.485 149.536 209.709 149.536C209.965 149.536 210.117 149.608 210.165 149.752C210.229 149.896 210.317 152.024 210.429 156.136C210.493 158.632 210.517 160.296 210.501 161.128C210.501 161.96 210.453 162.424 210.357 162.52C210.181 162.696 210.005 162.744 209.829 162.664C209.765 162.648 209.717 162.568 209.685 162.424C209.653 162.28 209.621 161.992 209.589 161.56C209.557 161.128 209.533 160.592 209.517 159.952C209.501 159.296 209.477 158.392 209.445 157.24C209.349 153.416 209.293 151.32 209.277 150.952C209.229 150.296 209.229 149.896 209.277 149.752ZM201.333 153.904C202.469 153.36 203.221 153.112 203.589 153.16L204.141 153.208L204.117 155.176C204.085 156.136 204.005 157.208 203.877 158.392C203.765 159.576 203.661 160.344 203.565 160.696C203.501 160.872 203.349 160.984 203.109 161.032C202.885 161.064 202.733 161.008 202.653 160.864C202.557 160.72 202.613 160.248 202.821 159.448C202.965 158.84 203.069 157.896 203.133 156.616C203.213 155.336 203.197 154.632 203.085 154.504C202.973 154.408 202.525 154.512 201.741 154.816C201.005 155.056 200.501 155.192 200.229 155.224C199.957 155.24 199.797 155.16 199.749 154.984C199.733 154.872 199.845 154.736 200.085 154.576C200.341 154.4 200.757 154.176 201.333 153.904Z" fill="black"/>
</svg>
