<svg width="72" height="72" viewBox="0 0 72 72" fill="none" xmlns="http://www.w3.org/2000/svg">
<path fill-rule="evenodd" clip-rule="evenodd" d="M69.1633 35.9999C69.1633 54.3158 54.3158 69.1632 36 69.1632C17.6844 69.1632 2.83673 54.3158 2.83673 35.9999C2.83673 17.6844 17.6844 2.83667 36 2.83667C54.3158 2.83667 69.1633 17.6844 69.1633 35.9999ZM46.2041 33.4489C46.2041 40.4934 40.4934 46.204 33.449 46.204C26.4045 46.204 20.6939 40.4934 20.6939 33.4489C20.6939 26.4045 26.4045 20.6938 33.449 20.6938C40.4934 20.6938 46.2041 26.4045 46.2041 33.4489Z" fill="#206A5D"/>
<path d="M33.449 46.2041C40.4934 46.2041 46.2041 40.4934 46.2041 33.4489C46.2041 26.4045 40.4934 20.6938 33.449 20.6938C26.4045 20.6938 20.6939 26.4045 20.6939 33.4489C20.6939 40.4934 26.4045 46.2041 33.449 46.2041Z" fill="#FFC090"/>
<path d="M33.449 46.204C40.4934 46.204 46.2041 40.4934 46.2041 33.4489C46.2041 26.4045 40.4934 20.6938 33.449 20.6938C26.4045 20.6938 20.6939 26.4045 20.6939 33.4489C20.6939 40.4934 26.4045 46.204 33.449 46.204Z" stroke="#232323" stroke-width="4" stroke-linecap="round" stroke-linejoin="round"/>
<path d="M36 69.1632C54.3158 69.1632 69.1633 54.3158 69.1633 35.9999C69.1633 17.6844 54.3158 2.83667 36 2.83667C17.6844 2.83667 2.83673 17.6844 2.83673 35.9999C2.83673 54.3158 17.6844 69.1632 36 69.1632Z" stroke="#232323" stroke-width="4" stroke-linecap="round" stroke-linejoin="round"/>
<path d="M51.3061 51.3062L42.4795 42.4797" stroke="#232323" stroke-width="4" stroke-linecap="round" stroke-linejoin="round"/>
</svg>
