<svg width="72" height="72" viewBox="0 0 72 72" fill="none" xmlns="http://www.w3.org/2000/svg">
<path d="M36.1634 69.3265C54.4792 69.3265 69.3267 54.4791 69.3267 36.1633C69.3267 17.8477 54.4792 3 36.1634 3C17.8478 3 3.00012 17.8477 3.00012 36.1633C3.00012 54.4791 17.8478 69.3265 36.1634 69.3265Z" fill="#206A5D"/>
<path d="M36.0001 69.1633C54.3159 69.1633 69.1633 54.3158 69.1633 36C69.1633 17.6844 54.3159 2.83673 36.0001 2.83673C17.6845 2.83673 2.83679 17.6844 2.83679 36C2.83679 54.3158 17.6845 69.1633 36.0001 69.1633Z" stroke="#232323" stroke-width="4" stroke-linecap="round" stroke-linejoin="round"/>
<path d="M25.4244 45.8232C26.5994 47.2044 28.3214 48.0004 30.1347 48.0004H47.3186C50.7347 48.0004 53.5043 45.2311 53.5043 41.815V30.1857C53.5043 26.7696 50.7347 24 47.3186 24H30.1347C28.3214 24.0003 26.5994 24.7963 25.4244 26.1774L20.4757 31.9921C18.5081 34.3033 18.5081 37.7007 20.4757 40.0119L25.4244 45.8263V45.8232Z" fill="#FFC090" stroke="#232323" stroke-width="3" stroke-linecap="round" stroke-linejoin="round"/>
<path d="M33 30L44.0848 41.0845" stroke="#232323" stroke-width="3" stroke-linecap="round" stroke-linejoin="round"/>
<path d="M44.0788 30L33 41.0845" stroke="#232323" stroke-width="3" stroke-linecap="round" stroke-linejoin="round"/>
</svg>
