<svg width="80" height="61" viewBox="0 0 80 61" fill="none" xmlns="http://www.w3.org/2000/svg">
<path d="M40 13.147C15.3689 13.147 5.02759 35.2977 5.02759 35.7573C5.02759 36.2169 15.3689 58.3676 40 58.3676C64.6312 58.3676 74.9724 36.2169 74.9724 35.7573C74.9724 35.2977 64.6312 13.147 40 13.147Z" fill="#206A5D"/>
<path d="M11.582 26.0146L2.41382 16.8464" stroke="#232323" stroke-width="4" stroke-linecap="round" stroke-linejoin="round"/>
<path d="M29.0284 14.7549L25.2912 2.66479" stroke="#232323" stroke-width="4" stroke-linecap="round" stroke-linejoin="round"/>
<path d="M68.4182 26.0146L77.5859 16.8464" stroke="#232323" stroke-width="4" stroke-linecap="round" stroke-linejoin="round"/>
<path d="M50.9716 14.7549L54.7087 2.66479" stroke="#232323" stroke-width="4" stroke-linecap="round" stroke-linejoin="round"/>
<path d="M30.0344 33.4768C29.4292 36.1198 29.8987 38.8951 31.3396 41.1919C32.7805 43.4888 35.0749 45.1192 37.7179 45.7244C40.361 46.3297 43.1362 45.8602 45.4331 44.4192C47.7299 42.9783 49.3603 40.684 49.9656 38.0409C50.5708 35.3979 50.1013 32.6227 48.6604 30.3258C47.2194 28.0289 44.9251 26.3985 42.282 25.7933C39.639 25.188 36.8638 25.6575 34.5669 27.0985C32.27 28.5394 30.6397 30.8338 30.0344 33.4768Z" fill="#FFC090"/>
<path d="M40 13.147C15.3689 13.147 5.02759 35.2977 5.02759 35.7573C5.02759 36.2169 15.3689 58.3676 40 58.3676C64.6312 58.3676 74.9723 36.2169 74.9723 35.7573C74.9723 35.2977 64.6312 13.147 40 13.147Z" stroke="#232323" stroke-width="4" stroke-linecap="round" stroke-linejoin="round"/>
<path d="M30.0344 33.4768C29.4292 36.1198 29.8987 38.8951 31.3396 41.1919C32.7805 43.4888 35.0749 45.1192 37.7179 45.7244C40.361 46.3297 43.1362 45.8602 45.4331 44.4193C47.7299 42.9783 49.3603 40.684 49.9656 38.0409C50.5708 35.3979 50.1013 32.6227 48.6604 30.3258C47.2194 28.0289 44.9251 26.3985 42.282 25.7933C39.639 25.188 36.8638 25.6575 34.5669 27.0985C32.27 28.5394 30.6397 30.8338 30.0344 33.4768Z" stroke="#232323" stroke-width="4" stroke-linecap="round" stroke-linejoin="round"/>
</svg>
