<svg width="72" height="72" viewBox="0 0 72 72" fill="none" xmlns="http://www.w3.org/2000/svg">
<path d="M7.93878 69.1632H64.0612C66.8791 69.1632 69.1633 66.879 69.1633 64.0612V7.93871C69.1633 5.12093 66.8791 2.83667 64.0612 2.83667H7.93878C5.12099 2.83667 2.83673 5.12093 2.83673 7.93871V64.0612C2.83673 66.879 5.12099 69.1632 7.93878 69.1632Z" fill="#206A5D"/>
<path d="M46.459 34.0611L9.21413 69.1632H64.0612C66.8791 69.1632 69.1633 66.879 69.1633 64.0611V47.9897L49.7243 34.0611C49.2659 33.6793 48.6883 33.4702 48.0917 33.4702C47.4951 33.4702 46.9174 33.6793 46.459 34.0611Z" fill="#FFC090"/>
<path d="M7.93878 69.1632H64.0612C66.8791 69.1632 69.1633 66.879 69.1633 64.0612V7.93871C69.1633 5.12093 66.8791 2.83667 64.0612 2.83667H7.93878C5.12099 2.83667 2.83673 5.12093 2.83673 7.93871V64.0612C2.83673 66.879 5.12099 69.1632 7.93878 69.1632Z" stroke="#232323" stroke-width="4" stroke-linecap="round" stroke-linejoin="round"/>
<path d="M23.2449 30.8979C27.4716 30.8979 30.898 27.4715 30.898 23.2449C30.898 19.0182 27.4716 15.5918 23.2449 15.5918C19.0182 15.5918 15.5918 19.0182 15.5918 23.2449C15.5918 27.4715 19.0182 30.8979 23.2449 30.8979Z" fill="#FFC090"/>
<path d="M23.2449 30.8979C27.4716 30.8979 30.898 27.4715 30.898 23.2449C30.898 19.0182 27.4716 15.5918 23.2449 15.5918C19.0182 15.5918 15.5918 19.0182 15.5918 23.2449C15.5918 27.4715 19.0182 30.8979 23.2449 30.8979Z" stroke="#232323" stroke-width="4" stroke-linecap="round" stroke-linejoin="round"/>
<path d="M9.21429 69.1632L46.4592 34.0611C46.9176 33.6793 47.4953 33.4702 48.0918 33.4702C48.6884 33.4702 49.2661 33.6793 49.7244 34.0611L69.1633 47.9897" stroke="#232323" stroke-width="4" stroke-linecap="round" stroke-linejoin="round"/>
</svg>
