<svg width="72" height="72" viewBox="0 0 72 72" fill="none" xmlns="http://www.w3.org/2000/svg">
<path fill-rule="evenodd" clip-rule="evenodd" d="M15.8667 6.64361C20.0233 4.15387 24.7773 2.83819 29.6224 2.83667C33.6536 2.8343 37.6334 3.74184 41.265 5.49162C44.8966 7.24142 48.0865 9.78836 50.5967 12.9426C53.1071 16.0968 54.873 19.7769 55.7627 23.7086C56.0607 25.0245 56.2582 26.3572 56.3546 27.6953C53.5893 26.4549 50.5685 25.7959 47.4796 25.7959C44.2169 25.7937 40.9959 26.5278 38.0563 27.9436C35.1168 29.3593 32.5347 31.42 30.5023 33.9724C28.4699 36.5247 27.0398 39.5028 26.3183 42.6847C25.5968 45.8666 25.6027 49.1702 26.3355 52.3494C26.652 53.7229 27.1006 55.0576 27.6726 56.3357C24.2745 56.0857 20.9494 55.1892 17.878 53.6882L2.83673 56.4081L7.32847 44.4575C4.64501 40.4234 3.10602 35.7369 2.87542 30.8972C2.64483 26.0575 3.73126 21.246 6.01903 16.9749C8.30678 12.7039 11.7101 9.13331 15.8667 6.64361Z" fill="#FFC090"/>
<path d="M47.4797 25.7959C53.2306 25.7959 58.7459 28.0804 62.8123 32.1469C66.8786 36.2134 69.1633 41.7287 69.1633 47.4796C69.1771 51.7479 67.9153 55.9229 65.5408 59.4694L69.1633 69.1633L56.9694 66.9694C54.0368 68.3995 50.8195 69.1495 47.5568 69.1633C44.2942 69.177 41.0705 68.4541 38.126 67.049C35.1815 65.6439 32.592 63.5918 30.5506 61.0469C28.5092 58.502 27.0683 55.5291 26.3356 52.3495C25.6028 49.1703 25.5969 45.8666 26.3184 42.6847C27.0399 39.5028 28.4701 36.5248 30.5024 33.9724C32.5348 31.4201 35.1169 29.3593 38.0564 27.9436C40.9959 26.5279 44.217 25.7938 47.4797 25.7959Z" fill="#206A5D"/>
<path d="M47.4797 25.7959C53.2306 25.7959 58.7459 28.0804 62.8123 32.1469C66.8786 36.2134 69.1633 41.7287 69.1633 47.4796C69.1771 51.7479 67.9153 55.9229 65.5408 59.4694L69.1633 69.1633L56.9694 66.9694C54.0368 68.3995 50.8195 69.1495 47.5568 69.1633C44.2942 69.177 41.0705 68.4541 38.126 67.049C35.1815 65.6439 32.592 63.5918 30.5506 61.0469C28.5092 58.502 27.0683 55.5291 26.3356 52.3495C25.6028 49.1703 25.5969 45.8666 26.3184 42.6847C27.0399 39.5028 28.4701 36.5248 30.5024 33.9724C32.5348 31.4201 35.1169 29.3593 38.0564 27.9436C40.9959 26.5279 44.217 25.7938 47.4797 25.7959Z" stroke="#232323" stroke-width="4" stroke-linecap="round" stroke-linejoin="round"/>
<path d="M50.5919 13.0919C47.1561 8.71982 42.4424 5.52788 37.1073 3.9605C31.7721 2.39312 26.081 2.52831 20.8263 4.34725C15.5716 6.1662 11.0149 9.57834 7.79046 14.1086C4.56606 18.6389 2.83449 24.0619 2.83685 29.6225C2.82104 34.9082 4.38447 40.0782 7.32663 44.4695L2.83685 56.408L13.6532 54.4693" stroke="#232323" stroke-width="4" stroke-linecap="round" stroke-linejoin="round"/>
</svg>
