<svg width="72" height="72" viewBox="0 0 72 72" fill="none" xmlns="http://www.w3.org/2000/svg">
<path d="M10.4898 51.3062L2.83673 69.1633H69.1633L61.5102 51.3062H10.4898Z" fill="#FFC090"/>
<path d="M58.9592 25.7959C58.9592 41.102 36 58.9591 36 58.9591C36 58.9591 13.0408 41.102 13.0408 25.7959C13.0408 13.2908 23.4949 2.83667 36 2.83667C48.5051 2.83667 58.9592 13.2908 58.9592 25.7959Z" fill="#206A5D"/>
<path d="M36 33.4489C40.2267 33.4489 43.653 30.0226 43.653 25.7959C43.653 21.5692 40.2267 18.1428 36 18.1428C31.7733 18.1428 28.3469 21.5692 28.3469 25.7959C28.3469 30.0226 31.7733 33.4489 36 33.4489Z" fill="#FFC090"/>
<path d="M58.9592 25.7959C58.9592 41.102 36 58.9591 36 58.9591C36 58.9591 13.0408 41.102 13.0408 25.7959C13.0408 13.2908 23.4949 2.83667 36 2.83667C48.5051 2.83667 58.9592 13.2908 58.9592 25.7959Z" stroke="#232323" stroke-width="4" stroke-linecap="round" stroke-linejoin="round"/>
<path d="M36 33.4489C40.2267 33.4489 43.653 30.0226 43.653 25.7959C43.653 21.5692 40.2267 18.1428 36 18.1428C31.7733 18.1428 28.3469 21.5692 28.3469 25.7959C28.3469 30.0226 31.7733 33.4489 36 33.4489Z" stroke="#232323" stroke-width="4" stroke-linecap="round" stroke-linejoin="round"/>
<path d="M56.8026 51.3062H61.5102L69.1633 69.1633H2.83673L10.4898 51.3062H15.1974" stroke="#232323" stroke-width="4" stroke-linecap="round" stroke-linejoin="round"/>
</svg>
