<svg width="71" height="71" viewBox="0 0 71 71" fill="none" xmlns="http://www.w3.org/2000/svg">
<path d="M35.1633 68.3265C53.4791 68.3265 68.3265 53.4791 68.3265 35.1633C68.3265 16.8477 53.4791 2 35.1633 2C16.8477 2 2 16.8477 2 35.1633C2 53.4791 16.8477 68.3265 35.1633 68.3265Z" fill="#206A5D"/>
<path d="M35.1633 68.3265C53.4791 68.3265 68.3265 53.4791 68.3265 35.1633C68.3265 16.8477 53.4791 2 35.1633 2C16.8477 2 2 16.8477 2 35.1633C2 53.4791 16.8477 68.3265 35.1633 68.3265Z" stroke="#232323" stroke-width="4" stroke-linecap="round" stroke-linejoin="round"/>
<path d="M34.5651 54.1759L25.0577 54.9999L25.8817 45.4925L45.6569 25.8441C45.9522 25.5423 46.3046 25.3025 46.6938 25.1387C47.0827 24.975 47.5007 24.8906 47.9228 24.8906C48.3449 24.8906 48.7629 24.975 49.1521 25.1387C49.5413 25.3025 49.8937 25.5423 50.1887 25.8441L54.2135 29.9006C54.5108 30.1952 54.7465 30.5457 54.9072 30.9319C55.0682 31.3181 55.1509 31.7323 55.1509 32.1507C55.1509 32.569 55.0682 32.9832 54.9072 33.3694C54.7465 33.7556 54.5108 34.1061 54.2135 34.4007L34.5651 54.1759Z" fill="#FFC090"/>
<path d="M34.5651 54.1759L25.0577 54.9999L25.8817 45.4925L45.6569 25.8441C45.9522 25.5423 46.3046 25.3025 46.6938 25.1387C47.0827 24.975 47.5007 24.8906 47.9228 24.8906C48.3449 24.8906 48.7629 24.975 49.1521 25.1387C49.5413 25.3025 49.8937 25.5423 50.1887 25.8441L54.2135 29.9006C54.5108 30.1952 54.7465 30.5457 54.9072 30.9319C55.0682 31.3181 55.1509 31.7323 55.1509 32.1507C55.1509 32.569 55.0682 32.9832 54.9072 33.3694C54.7465 33.7556 54.5108 34.1061 54.2135 34.4007L34.5651 54.1759Z" stroke="#232323" stroke-width="4" stroke-linecap="round" stroke-linejoin="round"/>
<path d="M15.8341 25.8826C14.722 25.6891 14.722 24.0926 15.8341 23.8991C19.8632 23.1982 23.0678 20.1293 23.9423 16.1343L24.0093 15.8281C24.2499 14.7289 25.815 14.7221 26.0652 15.8191L26.1466 16.1759C27.0535 20.1521 30.2589 23.195 34.2768 23.894C35.3946 24.0885 35.3946 25.6932 34.2768 25.8876C30.2589 26.5866 27.0535 29.6296 26.1466 33.6057L26.0652 33.9626C25.815 35.0596 24.2499 35.0528 24.0093 33.9536L23.9423 33.6474C23.0678 29.6524 19.8632 26.5835 15.8341 25.8826Z" fill="#FFC090"/>
<path d="M15.8341 25.8826C14.722 25.6891 14.722 24.0926 15.8341 23.8991C19.8632 23.1982 23.0678 20.1293 23.9423 16.1343L24.0093 15.8281C24.2499 14.7289 25.815 14.7221 26.0652 15.8191L26.1466 16.1759C27.0535 20.1521 30.2589 23.195 34.2768 23.894C35.3946 24.0885 35.3946 25.6932 34.2768 25.8876C30.2589 26.5866 27.0535 29.6296 26.1466 33.6057L26.0652 33.9626C25.815 35.0596 24.2499 35.0528 24.0093 33.9536L23.9423 33.6474C23.0678 29.6524 19.8632 26.5835 15.8341 25.8826Z" stroke="#232323" stroke-width="4" stroke-linecap="round" stroke-linejoin="round"/>
</svg>
