<svg width="61" height="68" viewBox="0 0 61 68" fill="none" xmlns="http://www.w3.org/2000/svg">
<path d="M58.423 49.6531V65.147H2.77505V49.6531H58.423Z" fill="#206A5D"/>
<path d="M58.423 49.6531V33.6963C58.423 30.8785 56.1388 28.5942 53.3209 28.5942H7.87724C5.05949 28.5942 2.7752 30.8785 2.7752 33.6963V49.6531H58.423Z" fill="#FFC090"/>
<path d="M23.8686 28.5942H7.87724C5.05949 28.5942 2.7752 30.8785 2.7752 33.6963V49.6531H58.423V33.6963C58.423 30.8785 56.1388 28.5942 53.3209 28.5942H37.3412" stroke="#232323" stroke-width="4" stroke-linecap="round" stroke-linejoin="round"/>
<path d="M2.77505 65.147V49.6531H58.423V65.147" stroke="#232323" stroke-width="4" stroke-linecap="round" stroke-linejoin="round"/>
<path d="M43.9434 21.9931L32.4032 33.5334C31.4069 34.5296 29.7917 34.5296 28.7955 33.5334L13.4682 18.2061C12.472 17.2099 12.472 15.5947 13.4682 14.5984L25.0085 3.05823C26.0047 2.06197 27.6199 2.06197 28.6162 3.05823L43.9434 18.3854C44.9396 19.3816 44.9396 20.9969 43.9434 21.9931Z" fill="#206A5D"/>
<path d="M43.9434 21.9931L32.4032 33.5334C31.4069 34.5296 29.7917 34.5296 28.7955 33.5334L13.4682 18.2061C12.472 17.2099 12.472 15.5947 13.4682 14.5984L25.0085 3.05823C26.0047 2.06197 27.6199 2.06197 28.6162 3.05823L43.9434 18.3854C44.9396 19.3816 44.9396 20.9969 43.9434 21.9931Z" stroke="#232323" stroke-width="4" stroke-linecap="round" stroke-linejoin="round"/>
<path d="M21.1317 39.1235H40.0666" stroke="#232323" stroke-width="4" stroke-linecap="round" stroke-linejoin="round"/>
</svg>
