<svg width="71" height="71" viewBox="0 0 71 71" fill="none" xmlns="http://www.w3.org/2000/svg">
<path d="M35.1633 68.3265C53.4791 68.3265 68.3265 53.4791 68.3265 35.1633C68.3265 16.8477 53.4791 2 35.1633 2C16.8477 2 2 16.8477 2 35.1633C2 53.4791 16.8477 68.3265 35.1633 68.3265Z" fill="#206A5D"/>
<path d="M50.6122 22L30.2041 47.5102L20 39.8571" stroke="#FFC090" stroke-width="4" stroke-linecap="round" stroke-linejoin="round"/>
<path d="M35.1633 68.3265C53.4791 68.3265 68.3265 53.4791 68.3265 35.1633C68.3265 16.8477 53.4791 2 35.1633 2C16.8477 2 2 16.8477 2 35.1633C2 53.4791 16.8477 68.3265 35.1633 68.3265Z" stroke="#232323" stroke-width="4" stroke-linecap="round" stroke-linejoin="round"/>
</svg>
