<svg width="72" height="72" viewBox="0 0 72 72" fill="none" xmlns="http://www.w3.org/2000/svg">
<path d="M29.9168 56.4107L41.029 67.4719C41.7109 68.1703 42.5633 68.679 43.502 68.9474C44.4407 69.2158 45.4332 69.2341 46.3813 69.001C47.3353 68.779 48.2161 68.3158 48.9392 67.655C49.6623 66.9943 50.2033 66.1591 50.5101 65.229L68.7587 10.5344C69.1393 9.50963 69.2178 8.39703 68.9852 7.32886C68.752 6.26065 68.2173 5.28188 67.4439 4.50881C66.6709 3.73573 65.6923 3.20089 64.624 2.96786C63.5561 2.73483 62.4434 2.81341 61.4184 3.19426L6.72392 21.4427C5.76178 21.7714 4.90488 22.351 4.24175 23.1217C3.57861 23.8923 3.13332 24.8261 2.95187 25.8265C2.76459 26.7363 2.80629 27.6784 3.0732 28.5681C3.34012 29.4578 3.8239 30.2673 4.48108 30.9238L18.4478 44.8905L17.989 62.5785L29.9168 56.4107Z" fill="#206A5D"/>
<path d="M29.9168 56.4107L41.029 67.4719C41.7109 68.1704 42.5633 68.679 43.502 68.9474C44.4407 69.2158 45.4332 69.2341 46.3813 69.001C47.3353 68.779 48.2161 68.3158 48.9392 67.655C49.6623 66.9943 50.2033 66.1591 50.5101 65.229L68.7587 10.5344C69.1393 9.50963 69.2178 8.39703 68.9852 7.32886C68.752 6.26065 68.2173 5.28188 67.4439 4.50881C66.6709 3.73573 65.6923 3.20089 64.624 2.96786C63.5561 2.73483 62.4434 2.81341 61.4184 3.19426L6.72392 21.4427C5.76178 21.7714 4.90488 22.351 4.24175 23.1217C3.57861 23.8923 3.13332 24.8261 2.95187 25.8265C2.76459 26.7363 2.80629 27.6784 3.0732 28.5681C3.34012 29.4578 3.8239 30.2673 4.48108 30.9238L18.4478 44.8905L17.989 62.5785L29.9168 56.4107Z" stroke="#232323" stroke-width="4" stroke-linecap="round" stroke-linejoin="round"/>
<path d="M67.1275 4.31592L18.4477 44.8908" stroke="#232323" stroke-width="4" stroke-linecap="round" stroke-linejoin="round"/>
</svg>
