<svg width="80" height="80" viewBox="0 0 80 80" fill="none" xmlns="http://www.w3.org/2000/svg">
<mask id="path-1-outside-1_243_449" maskUnits="userSpaceOnUse" x="17" y="23.8997" width="47" height="54" fill="black">
<rect fill="white" x="17" y="23.8997" width="47" height="54"/>
<path d="M31.8828 28.8877C33.0268 28.8877 33.7202 29.165 33.9628 29.7197L46.5988 60.4517V31.0197C46.5988 30.3263 46.7202 29.8063 46.9628 29.4597C47.2402 29.0783 47.7775 28.8877 48.5748 28.8877H57.3628C58.1602 28.8877 58.6802 29.0783 58.9228 29.4597C59.2002 29.8063 59.3388 30.3263 59.3388 31.0197V71.3197C59.3388 71.9783 59.2002 72.4463 58.9228 72.7237C58.6802 73.0357 58.1602 73.1917 57.3628 73.1917H49.0948C47.9508 73.1917 47.2575 72.9143 47.0148 72.3597L34.3788 41.6277V71.0597C34.3788 71.753 34.2402 72.273 33.9628 72.6197C33.7202 73.001 33.2002 73.1917 32.4028 73.1917H23.6148C22.8175 73.1917 22.2802 73.001 22.0028 72.6197C21.7602 72.273 21.6388 71.753 21.6388 71.0597V30.7597C21.6388 30.101 21.7602 29.633 22.0028 29.3557C22.2802 29.0437 22.8175 28.8877 23.6148 28.8877H31.8828Z"/>
</mask>
<path d="M31.8828 28.8877C33.0268 28.8877 33.7202 29.165 33.9628 29.7197L46.5988 60.4517V31.0197C46.5988 30.3263 46.7202 29.8063 46.9628 29.4597C47.2402 29.0783 47.7775 28.8877 48.5748 28.8877H57.3628C58.1602 28.8877 58.6802 29.0783 58.9228 29.4597C59.2002 29.8063 59.3388 30.3263 59.3388 31.0197V71.3197C59.3388 71.9783 59.2002 72.4463 58.9228 72.7237C58.6802 73.0357 58.1602 73.1917 57.3628 73.1917H49.0948C47.9508 73.1917 47.2575 72.9143 47.0148 72.3597L34.3788 41.6277V71.0597C34.3788 71.753 34.2402 72.273 33.9628 72.6197C33.7202 73.001 33.2002 73.1917 32.4028 73.1917H23.6148C22.8175 73.1917 22.2802 73.001 22.0028 72.6197C21.7602 72.273 21.6388 71.753 21.6388 71.0597V30.7597C21.6388 30.101 21.7602 29.633 22.0028 29.3557C22.2802 29.0437 22.8175 28.8877 23.6148 28.8877H31.8828Z" fill="#FFC090"/>
<path d="M33.9628 29.7197L37.6623 28.1985L37.6453 28.1573L37.6275 28.1164L33.9628 29.7197ZM46.5988 60.4517L42.8993 61.9728L50.5988 60.4517H46.5988ZM46.9628 29.4597L43.7279 27.107L43.7066 27.1362L43.6859 27.1658L46.9628 29.4597ZM58.9228 29.4597L55.5482 31.6072L55.6643 31.7896L55.7994 31.9584L58.9228 29.4597ZM58.9228 72.7237L56.0944 69.8952L55.9183 70.0713L55.7654 70.2679L58.9228 72.7237ZM47.0148 72.3597L43.3153 73.8808L43.3323 73.922L43.3502 73.9629L47.0148 72.3597ZM34.3788 41.6277L38.0783 40.1065L30.3788 41.6277H34.3788ZM33.9628 72.6197L30.8394 70.1209L30.7043 70.2897L30.5882 70.4722L33.9628 72.6197ZM22.0028 72.6197L18.7259 74.9135L18.7466 74.9431L18.7679 74.9723L22.0028 72.6197ZM22.0028 29.3557L19.0132 26.6982L19.0028 26.7099L18.9925 26.7216L22.0028 29.3557ZM31.8828 32.8877C32.1886 32.8877 32.0836 32.9329 31.7753 32.8096C31.3876 32.6545 30.6916 32.2221 30.2982 31.3229L37.6275 28.1164C36.3205 25.129 33.1665 24.8877 31.8828 24.8877V32.8877ZM30.2633 31.2408L42.8993 61.9728L50.2983 58.9305L37.6623 28.1985L30.2633 31.2408ZM50.5988 60.4517V31.0197H42.5988V60.4517H50.5988ZM50.5988 31.0197C50.5988 30.8935 50.6111 30.9075 50.5852 31.0186C50.5591 31.1304 50.4766 31.4152 50.2398 31.7535L43.6859 27.1658C42.7582 28.4911 42.5988 29.9823 42.5988 31.0197H50.5988ZM50.1978 31.8123C49.7697 32.4009 49.2421 32.683 48.9115 32.8004C48.6169 32.9049 48.4643 32.8877 48.5748 32.8877V24.8877C47.3729 24.8877 45.156 25.1433 43.7279 27.107L50.1978 31.8123ZM48.5748 32.8877H57.3628V24.8877H48.5748V32.8877ZM57.3628 32.8877C57.4805 32.8877 57.3029 32.9068 56.9738 32.7862C56.5997 32.649 55.9965 32.3117 55.5482 31.6072L62.2975 27.3122C60.8979 25.1128 58.4896 24.8877 57.3628 24.8877V32.8877ZM55.7994 31.9584C55.5265 31.6174 55.4137 31.3046 55.3699 31.1403C55.3281 30.9837 55.3388 30.9266 55.3388 31.0197H63.3388C63.3388 29.899 63.1322 28.3182 62.0463 26.9609L55.7994 31.9584ZM55.3388 31.0197V71.3197H63.3388V31.0197H55.3388ZM55.3388 71.3197C55.3388 71.3891 55.3291 71.2663 55.3996 71.0283C55.4741 70.777 55.66 70.3296 56.0944 69.8952L61.7513 75.5521C63.1512 74.1521 63.3388 72.36 63.3388 71.3197H55.3388ZM55.7654 70.2679C56.3133 69.5635 56.9558 69.317 57.2014 69.2434C57.4445 69.1704 57.5366 69.1917 57.3628 69.1917V77.1917C57.9864 77.1917 58.7372 77.1349 59.5002 76.906C60.2658 76.6763 61.2897 76.1958 62.0802 75.1794L55.7654 70.2679ZM57.3628 69.1917H49.0948V77.1917H57.3628V69.1917ZM49.0948 69.1917C48.7891 69.1917 48.8941 69.1464 49.2024 69.2698C49.5901 69.4248 50.2861 69.8572 50.6795 70.7564L43.3502 73.9629C44.6572 76.9503 47.8112 77.1917 49.0948 77.1917V69.1917ZM50.7143 70.8385L38.0783 40.1065L30.6793 43.1488L43.3153 73.8808L50.7143 70.8385ZM30.3788 41.6277V71.0597H38.3788V41.6277H30.3788ZM30.3788 71.0597C30.3788 71.1528 30.3681 71.0956 30.4099 70.939C30.4537 70.7747 30.5665 70.4619 30.8394 70.1209L37.0863 75.1184C38.1722 73.7611 38.3788 72.1804 38.3788 71.0597H30.3788ZM30.5882 70.4722C31.0365 69.7677 31.6397 69.4303 32.0138 69.2932C32.3429 69.1725 32.5205 69.1917 32.4028 69.1917V77.1917C33.5296 77.1917 35.9379 76.9665 37.3375 74.7672L30.5882 70.4722ZM32.4028 69.1917H23.6148V77.1917H32.4028V69.1917ZM23.6148 69.1917C23.5043 69.1917 23.6569 69.1744 23.9515 69.2789C24.2821 69.3963 24.8097 69.6784 25.2378 70.267L18.7679 74.9723C20.196 76.936 22.4129 77.1917 23.6148 77.1917V69.1917ZM25.2798 70.3258C25.5166 70.6642 25.5991 70.9489 25.6252 71.0607C25.6511 71.1718 25.6388 71.1858 25.6388 71.0597H17.6388C17.6388 72.097 17.7982 73.5882 18.7259 74.9135L25.2798 70.3258ZM25.6388 71.0597V30.7597H17.6388V71.0597H25.6388ZM25.6388 30.7597C25.6388 30.6558 25.6505 30.7307 25.6018 30.9185C25.553 31.1067 25.4096 31.5366 25.0131 31.9897L18.9925 26.7216C17.7716 28.1169 17.6388 29.8181 17.6388 30.7597H25.6388ZM24.9925 32.0131C24.487 32.5817 23.9446 32.7835 23.7291 32.846C23.5177 32.9074 23.4475 32.8877 23.6148 32.8877V24.8877C22.6145 24.8877 20.5057 25.0191 19.0132 26.6982L24.9925 32.0131ZM23.6148 32.8877H31.8828V24.8877H23.6148V32.8877Z" fill="#232323" mask="url(#path-1-outside-1_243_449)"/>
<mask id="path-3-outside-2_243_449" maskUnits="userSpaceOnUse" x="1" y="2" width="78" height="46" fill="black">
<rect fill="white" x="1" y="2" width="78" height="46"/>
<path fill-rule="evenodd" clip-rule="evenodd" d="M7.99061 33.6727C6.15156 34.8967 5.46267 37.4902 6.45193 39.4654L7.43795 41.4342C8.42722 43.4095 10.72 44.0185 12.5591 42.7945L39.9822 24.5426L68.1169 43.2681C69.956 44.4921 72.2488 43.8831 73.2381 41.9078L74.2241 39.9391C75.2133 37.9638 74.5245 35.3703 72.6854 34.1463L49.1191 18.4614L51.6853 16.7534C53.5244 15.5294 54.2132 12.9359 53.224 10.9606L52.238 8.99185C51.2487 7.01659 48.9559 6.40758 47.1168 7.63159L39.9822 12.3802L33.5592 8.1052C31.7201 6.88119 29.4273 7.4902 28.4381 9.46546L27.452 11.4342C26.4628 13.4095 27.1517 16.003 28.9907 17.227L30.8453 18.4614L7.99061 33.6727Z"/>
</mask>
<path fill-rule="evenodd" clip-rule="evenodd" d="M7.99061 33.6727C6.15156 34.8967 5.46267 37.4902 6.45193 39.4654L7.43795 41.4342C8.42722 43.4095 10.72 44.0185 12.5591 42.7945L39.9822 24.5426L68.1169 43.2681C69.956 44.4921 72.2488 43.8831 73.2381 41.9078L74.2241 39.9391C75.2133 37.9638 74.5245 35.3703 72.6854 34.1463L49.1191 18.4614L51.6853 16.7534C53.5244 15.5294 54.2132 12.9359 53.224 10.9606L52.238 8.99185C51.2487 7.01659 48.9559 6.40758 47.1168 7.63159L39.9822 12.3802L33.5592 8.1052C31.7201 6.88119 29.4273 7.4902 28.4381 9.46546L27.452 11.4342C26.4628 13.4095 27.1517 16.003 28.9907 17.227L30.8453 18.4614L7.99061 33.6727Z" fill="#206A5D"/>
<path d="M6.45193 39.4654L2.87541 41.2567L2.87541 41.2567L6.45193 39.4654ZM7.99061 33.6727L10.2069 37.0026L10.2069 37.0026L7.99061 33.6727ZM7.43795 41.4342L11.0145 39.643L11.0145 39.643L7.43795 41.4342ZM12.5591 42.7945L14.7753 46.1244L14.7753 46.1244L12.5591 42.7945ZM39.9822 24.5426L42.1985 21.2127L39.9822 19.7376L37.7659 21.2127L39.9822 24.5426ZM68.1169 43.2681L65.9007 46.598L65.9007 46.598L68.1169 43.2681ZM73.2381 41.9078L76.8146 43.6991L76.8146 43.6991L73.2381 41.9078ZM74.2241 39.9391L70.6476 38.1478L70.6475 38.1478L74.2241 39.9391ZM72.6854 34.1463L74.9017 30.8164L74.9017 30.8164L72.6854 34.1463ZM49.1191 18.4614L46.9029 15.1315L41.8998 18.4614L46.9029 21.7913L49.1191 18.4614ZM51.6853 16.7534L49.469 13.4235L49.469 13.4235L51.6853 16.7534ZM53.224 10.9606L56.8005 9.16942L56.8005 9.16941L53.224 10.9606ZM52.238 8.99185L48.6614 10.7831L48.6614 10.7831L52.238 8.99185ZM47.1168 7.63159L44.9006 4.30169L44.9006 4.3017L47.1168 7.63159ZM39.9822 12.3802L37.7659 15.71L39.9822 17.1851L42.1985 15.71L39.9822 12.3802ZM33.5592 8.1052L31.3429 11.4351L31.3429 11.4351L33.5592 8.1052ZM28.4381 9.46546L32.0146 11.2567L32.0146 11.2567L28.4381 9.46546ZM27.452 11.4342L23.8755 9.64302L23.8755 9.64302L27.452 11.4342ZM28.9907 17.227L26.7744 20.5569L26.7744 20.5569L28.9907 17.227ZM30.8453 18.4614L33.0615 21.7913L38.0646 18.4614L33.0615 15.1315L30.8453 18.4614ZM10.0285 37.6742C10.0151 37.6475 9.97211 37.5193 10.0266 37.3142C10.0811 37.1091 10.182 37.0191 10.2069 37.0026L5.77435 30.3428C2.25415 32.6857 0.981818 37.4757 2.87541 41.2567L10.0285 37.6742ZM11.0145 39.643L10.0285 37.6742L2.87541 41.2567L3.86143 43.2254L11.0145 39.643ZM10.3428 39.4646C10.3335 39.4708 10.3669 39.4473 10.4437 39.4341C10.5189 39.4211 10.6107 39.4226 10.7067 39.4481C10.8027 39.4736 10.8832 39.5179 10.9421 39.5664C11.0021 39.616 11.0195 39.653 11.0145 39.643L3.86143 43.2254C5.92709 47.3499 10.9353 48.6802 14.7753 46.1244L10.3428 39.4646ZM37.7659 21.2127L10.3428 39.4646L14.7753 46.1244L42.1985 27.8725L37.7659 21.2127ZM70.3332 39.9382L42.1985 21.2127L37.7659 27.8725L65.9007 46.598L70.3332 39.9382ZM69.6615 40.1166C69.6566 40.1266 69.6739 40.0896 69.734 40.04C69.7928 39.9915 69.8733 39.9472 69.9693 39.9217C70.0653 39.8963 70.1571 39.8947 70.2323 39.9077C70.3091 39.9209 70.3425 39.9444 70.3332 39.9382L65.9007 46.598C69.7408 49.1538 74.7489 47.8236 76.8146 43.6991L69.6615 40.1166ZM70.6475 38.1478L69.6615 40.1166L76.8146 43.6991L77.8006 41.7303L70.6475 38.1478ZM70.4691 37.4762C70.494 37.4927 70.5949 37.5827 70.6494 37.7878C70.7039 37.993 70.6609 38.1212 70.6476 38.1478L77.8006 41.7303C79.6942 37.9494 78.4219 33.1593 74.9017 30.8164L70.4691 37.4762ZM46.9029 21.7913L70.4691 37.4762L74.9017 30.8164L51.3354 15.1315L46.9029 21.7913ZM49.469 13.4235L46.9029 15.1315L51.3354 21.7913L53.9016 20.0833L49.469 13.4235ZM49.6475 12.7519C49.6608 12.7785 49.7038 12.9067 49.6493 13.1119C49.5948 13.317 49.4939 13.407 49.469 13.4235L53.9016 20.0833C57.4218 17.7404 58.6941 12.9503 56.8005 9.16942L49.6475 12.7519ZM48.6614 10.7831L49.6475 12.7519L56.8005 9.16941L55.8145 7.20063L48.6614 10.7831ZM49.3331 10.9615C49.3424 10.9553 49.309 10.9788 49.2322 10.992C49.157 11.005 49.0652 11.0034 48.9692 10.9779C48.8732 10.9524 48.7927 10.9082 48.7339 10.8596C48.6738 10.8101 48.6564 10.7731 48.6614 10.7831L55.8145 7.20063C53.7488 3.07614 48.7407 1.74588 44.9006 4.30169L49.3331 10.9615ZM42.1985 15.71L49.3331 10.9615L44.9006 4.3017L37.7659 9.05026L42.1985 15.71ZM31.3429 11.4351L37.7659 15.71L42.1985 9.05026L35.7754 4.77531L31.3429 11.4351ZM32.0146 11.2567C32.0196 11.2467 32.0022 11.2837 31.9422 11.3333C31.8833 11.3818 31.8028 11.4261 31.7068 11.4516C31.6108 11.477 31.519 11.4786 31.4438 11.4656C31.367 11.4524 31.3336 11.4289 31.3429 11.4351L35.7754 4.77531C31.9354 2.21949 26.9272 3.54975 24.8615 7.67424L32.0146 11.2567ZM31.0286 13.2255L32.0146 11.2567L24.8615 7.67424L23.8755 9.64302L31.0286 13.2255ZM31.207 13.8971C31.1821 13.8806 31.0812 13.7906 31.0267 13.5855C30.9722 13.3803 31.0152 13.2521 31.0286 13.2255L23.8755 9.64302C21.9819 13.4239 23.2542 18.214 26.7744 20.5569L31.207 13.8971ZM33.0615 15.1315L31.207 13.8971L26.7744 20.5569L28.629 21.7913L33.0615 15.1315ZM10.2069 37.0026L33.0615 21.7913L28.629 15.1315L5.77434 30.3428L10.2069 37.0026Z" fill="#232323" mask="url(#path-3-outside-2_243_449)"/>
</svg>
