<svg width="72" height="72" viewBox="0 0 72 72" fill="none" xmlns="http://www.w3.org/2000/svg">
<path d="M36 41.102C43.0444 41.102 48.7551 35.3913 48.7551 28.3469C48.7551 21.3025 43.0444 15.5918 36 15.5918C28.9556 15.5918 23.2449 21.3025 23.2449 28.3469C23.2449 35.3913 28.9556 41.102 36 41.102Z" fill="#FFC090"/>
<path d="M57.7928 60.998C51.9648 66.0832 44.3422 69.1633 36 69.1633C27.6578 69.1633 20.0351 66.0832 14.207 60.998C18.6861 53.6561 26.7707 48.7551 36 48.7551C45.2294 48.7551 53.3138 53.6561 57.7928 60.998Z" fill="#FFC090"/>
<path fill-rule="evenodd" clip-rule="evenodd" d="M14.207 60.9979C18.6861 53.6561 26.7707 48.755 36 48.755C45.2293 48.755 53.3138 53.6561 57.7929 60.9979C64.7607 54.9183 69.1633 45.9734 69.1633 35.9999C69.1633 17.6844 54.3158 2.83667 36 2.83667C17.6844 2.83667 2.83673 17.6844 2.83673 35.9999C2.83673 45.9734 7.23928 54.9183 14.207 60.9979ZM36 41.102C43.0444 41.102 48.7551 35.3913 48.7551 28.3469C48.7551 21.3024 43.0444 15.5918 36 15.5918C28.9556 15.5918 23.2449 21.3024 23.2449 28.3469C23.2449 35.3913 28.9556 41.102 36 41.102Z" fill="#206A5D"/>
<path d="M36 41.102C43.0444 41.102 48.7551 35.3913 48.7551 28.3469C48.7551 21.3025 43.0444 15.5918 36 15.5918C28.9556 15.5918 23.2449 21.3025 23.2449 28.3469C23.2449 35.3913 28.9556 41.102 36 41.102Z" stroke="#232323" stroke-width="4" stroke-linecap="round" stroke-linejoin="round"/>
<path d="M14.2142 60.9999C16.4909 57.2627 19.6908 54.1739 23.5061 52.031C27.3214 49.8877 31.6238 48.762 35.9999 48.762C40.376 48.762 44.6784 49.8877 48.4937 52.031C52.3092 54.1739 55.5087 57.2627 57.7857 60.9999" stroke="#232323" stroke-width="4" stroke-linecap="round" stroke-linejoin="round"/>
<path d="M36 69.1632C54.3158 69.1632 69.1633 54.3158 69.1633 35.9999C69.1633 17.6844 54.3158 2.83667 36 2.83667C17.6844 2.83667 2.83673 17.6844 2.83673 35.9999C2.83673 54.3158 17.6844 69.1632 36 69.1632Z" stroke="#232323" stroke-width="4" stroke-linecap="round" stroke-linejoin="round"/>
</svg>
