<svg width="71" height="71" viewBox="0 0 71 71" fill="none" xmlns="http://www.w3.org/2000/svg">
<path d="M35.1651 68.3301C43.961 68.3301 52.3966 64.8359 58.6163 58.6163C64.8359 52.3966 68.3301 43.961 68.3301 35.1651C68.3301 26.3691 64.8359 17.9335 58.6163 11.7138C52.3966 5.49417 43.961 2 35.1651 2C26.3691 2 17.9335 5.49417 11.7138 11.7138C5.49417 17.9335 2 26.3691 2 35.1651C2 43.961 5.49417 52.3966 11.7138 58.6163C17.9335 64.8359 26.3691 68.3301 35.1651 68.3301Z" fill="#206A5D"/>
<path d="M35.1651 68.3301C43.961 68.3301 52.3966 64.8359 58.6163 58.6163C64.8359 52.3966 68.3301 43.961 68.3301 35.1651C68.3301 26.3691 64.8359 17.9335 58.6163 11.7138C52.3966 5.49417 43.961 2 35.1651 2C26.3691 2 17.9335 5.49417 11.7138 11.7138C5.49417 17.9335 2 26.3691 2 35.1651C2 43.961 5.49417 52.3966 11.7138 58.6163C17.9335 64.8359 26.3691 68.3301 35.1651 68.3301Z" stroke="#232323" stroke-width="4" stroke-linecap="round" stroke-linejoin="round"/>
<path d="M19.8581 36.4406C19.5197 36.4406 19.1953 36.3062 18.9561 36.067C18.7169 35.8277 18.5825 35.5033 18.5825 35.165C18.5825 34.8267 18.7169 34.5022 18.9561 34.263C19.1953 34.0238 19.5197 33.8894 19.8581 33.8894" stroke="#FFC090" stroke-width="5" stroke-linecap="round" stroke-linejoin="round"/>
<path d="M19.858 36.4406C20.1964 36.4406 20.5208 36.3062 20.76 36.067C20.9992 35.8277 21.1336 35.5033 21.1336 35.165C21.1336 34.8267 20.9992 34.5022 20.76 34.263C20.5208 34.0238 20.1964 33.8894 19.858 33.8894" stroke="#FFC090" stroke-width="5" stroke-linecap="round" stroke-linejoin="round"/>
<path d="M35.165 36.4406C34.8267 36.4406 34.5022 36.3062 34.263 36.067C34.0238 35.8277 33.8894 35.5033 33.8894 35.165C33.8894 34.8267 34.0238 34.5022 34.263 34.263C34.5022 34.0238 34.8267 33.8894 35.165 33.8894" stroke="#FFC090" stroke-width="5" stroke-linecap="round" stroke-linejoin="round"/>
<path d="M35.165 36.4406C35.5033 36.4406 35.8278 36.3062 36.067 36.067C36.3062 35.8277 36.4406 35.5033 36.4406 35.165C36.4406 34.8267 36.3062 34.5022 36.067 34.263C35.8278 34.0238 35.5033 33.8894 35.165 33.8894" stroke="#FFC090" stroke-width="5" stroke-linecap="round" stroke-linejoin="round"/>
<path d="M50.472 36.4406C50.1337 36.4406 49.8092 36.3062 49.57 36.067C49.3308 35.8277 49.1964 35.5033 49.1964 35.165C49.1964 34.8267 49.3308 34.5022 49.57 34.263C49.8092 34.0238 50.1337 33.8894 50.472 33.8894" stroke="#FFC090" stroke-width="5" stroke-linecap="round" stroke-linejoin="round"/>
<path d="M50.472 36.4406C50.8103 36.4406 51.1347 36.3062 51.3739 36.067C51.6131 35.8277 51.7475 35.5033 51.7475 35.165C51.7475 34.8267 51.6131 34.5022 51.3739 34.263C51.1347 34.0238 50.8103 33.8894 50.472 33.8894" stroke="#FFC090" stroke-width="5" stroke-linecap="round" stroke-linejoin="round"/>
</svg>
