<svg width="68" height="71" viewBox="0 0 68 71" fill="none" xmlns="http://www.w3.org/2000/svg">
<path d="M34 45.2042C39.7265 45.2042 45.2185 42.9293 49.2677 38.8801C53.317 34.8308 55.5918 29.3389 55.5918 23.6123C55.5918 17.8858 53.317 12.3939 49.2677 8.34461C45.2185 4.29536 39.7265 2.02051 34 2.02051C28.2735 2.02051 22.7815 4.29536 18.7322 8.34461C14.683 12.3939 12.4081 17.8858 12.4081 23.6123C12.4081 29.3389 14.683 34.8308 18.7322 38.8801C22.7815 42.9293 28.2735 45.2042 34 45.2042Z" fill="#FFC090"/>
<path d="M65.5306 68.1634C63.3886 61.4841 59.181 55.6576 53.5142 51.5238C47.8474 47.3901 41.0143 45.1626 34 45.1626C26.9857 45.1626 20.1525 47.3901 14.4858 51.5238C8.81899 55.6576 4.61131 61.4841 2.46936 68.1634H65.5306Z" fill="#206A5D"/>
<path d="M65.5306 68.1634C63.3886 61.4841 59.181 55.6576 53.5142 51.5238C47.8474 47.3901 41.0143 45.1626 34 45.1626C26.9857 45.1626 20.1526 47.3901 14.4858 51.5238C8.81899 55.6576 4.61131 61.4841 2.46936 68.1634H65.5306Z" stroke="#232323" stroke-width="4" stroke-linecap="round" stroke-linejoin="round"/>
<path d="M34 45.2042C39.7265 45.2042 45.2185 42.9293 49.2677 38.8801C53.317 34.8308 55.5918 29.3389 55.5918 23.6123C55.5918 17.8858 53.317 12.3939 49.2677 8.34461C45.2185 4.29536 39.7265 2.02051 34 2.02051C28.2735 2.02051 22.7815 4.29536 18.7322 8.34461C14.683 12.3939 12.4081 17.8858 12.4081 23.6123C12.4081 29.3389 14.683 34.8308 18.7322 38.8801C22.7815 42.9293 28.2735 45.2042 34 45.2042Z" stroke="#232323" stroke-width="4" stroke-linecap="round" stroke-linejoin="round"/>
<path d="M41.051 31.9644C41.051 31.9644 39.2551 35.4899 34 35.4899C28.7449 35.4899 26.949 31.9695 26.949 31.9695" stroke="#232323" stroke-width="4" stroke-linecap="round" stroke-linejoin="round"/>
<path d="M55.1989 19.5H55.0561C52.0748 19.5028 49.127 18.8709 46.4087 17.6464C43.6905 16.4219 41.2641 14.6327 39.2908 12.3979C37.3169 14.6334 34.8896 16.4229 32.1705 17.6475C29.4513 18.872 26.5025 19.5035 23.5204 19.5C20.0041 19.5073 16.5424 18.63 13.454 16.949C14.9349 12.398 17.8851 8.46756 21.8415 5.77478C25.798 3.08201 30.5367 1.77933 35.3136 2.07124C40.0906 2.36316 44.6353 4.23315 48.2345 7.38765C51.8336 10.5421 54.2833 14.8025 55.1989 19.5Z" fill="#206A5D"/>
<path d="M55.1989 19.5H55.0561C52.0748 19.5028 49.127 18.8709 46.4088 17.6464C43.6905 16.4219 41.2641 14.6327 39.2908 12.3979C37.3169 14.6334 34.8896 16.4229 32.1705 17.6475C29.4513 18.872 26.5025 19.5035 23.5204 19.5C20.0041 19.5073 16.5424 18.63 13.454 16.949C14.9349 12.398 17.8851 8.46756 21.8415 5.77478C25.798 3.08201 30.5367 1.77933 35.3136 2.07124C40.0906 2.36316 44.6353 4.23315 48.2345 7.38765C51.8336 10.5421 54.2833 14.8025 55.1989 19.5Z" stroke="#232323" stroke-width="4" stroke-linecap="round" stroke-linejoin="round"/>
</svg>
